<svg xmlns="http://www.w3.org/2000/svg" version="1.1" width="952" height="227">
<path d="M0 0 C1.92382814 1.16324492 3.81691224 2.3779415 5.6875 3.625 C6.76 2.985625 7.8325 2.34625 8.9375 1.6875 C15.05898803 -1.96184863 21.93648125 -2.37789841 28.87109375 -0.9140625 C34.0739489 0.81008053 37.77984347 3.85166916 41.6875 7.625 C42.29335938 7.22667969 42.89921875 6.82835937 43.5234375 6.41796875 C53.76368278 -0.05701711 63.19533131 -2.93593441 75.32421875 -0.94140625 C82.5886639 0.84967441 87.76083274 4.46648692 92.0703125 10.58984375 C96.52412266 18.95241737 95.92353838 27.88992528 93.265625 36.69140625 C91.20335794 42.94801545 88.89678087 49.11426224 86.5723877 55.27709961 C83.62850008 63.08820934 80.71438768 70.91048024 77.80075073 78.73291016 C76.63613174 81.84525142 75.45771774 84.95210596 74.27758789 88.05859375 C73.54798134 90.00246964 72.81871846 91.94647458 72.08984375 93.890625 C71.74649994 94.78340149 71.40315613 95.67617798 71.04940796 96.5960083 C69.38663923 101.06520648 68.14355443 104.7734109 68.6875 109.625 C69.0175 109.955 69.3475 110.285 69.6875 110.625 C74.44348511 110.43849078 77.68864666 109.60333804 81.23022461 106.31176758 C87.19621447 99.40625175 90.44106471 90.82056298 93.5625 82.375 C93.98740723 81.25270996 94.41231445 80.13041992 94.85009766 78.97412109 C96.95153507 73.39725971 98.9901755 67.8012689 100.96875 62.1796875 C101.32340332 61.1784082 101.67805664 60.17712891 102.04345703 59.14550781 C102.70676933 57.26077281 103.35937233 55.37222323 103.99951172 53.47949219 C106.78385824 45.53329087 106.78385824 45.53329087 110.6875 42.625 C115.22198658 41.11350447 119.06491316 40.85058355 123.4375 42.9375 C128.50670776 46.73940582 128.50670776 46.73940582 129.11120605 49.70048523 C129.10003764 56.76023147 127.40653356 62.55916835 124.96875 69.14453125 C124.59141724 70.20612961 124.21408447 71.26772797 123.82531738 72.36149597 C122.62746341 75.7256694 121.4090076 79.08185032 120.1875 82.4375 C118.96880256 85.81189182 117.7547471 89.18777716 116.54968262 92.56706238 C115.80150485 94.66252123 115.04506644 96.75505353 114.27941895 98.8441925 C113.93906616 99.79255478 113.59871338 100.74091705 113.24804688 101.71801758 C112.79504211 102.96183952 112.79504211 102.96183952 112.33288574 104.23078918 C111.6421589 106.79320353 111.570028 108.98333188 111.6875 111.625 C114.70985023 112.15391129 116.89571621 112.02560489 119.65625 110.62890625 C124.39792786 107.11824091 126.58704319 103.10311848 128.49609375 97.6328125 C128.74669052 96.94071686 128.99728729 96.24862122 129.25547791 95.53555298 C131.28499578 89.88653536 133.21857582 84.20315087 135.16015625 78.5234375 C135.45417328 77.66345154 135.74819031 76.80346558 136.05111694 75.91741943 C137.8649851 70.60645351 137.8649851 70.60645351 139.65844727 65.28857422 C140.54282632 62.65426378 141.44375101 60.02610157 142.34765625 57.3984375 C142.60926041 56.60464691 142.87086456 55.81085632 143.14039612 54.99301147 C144.89840824 49.94100725 146.91427365 46.45211366 150.6875 42.625 C155.20702327 41.11849224 159.04709378 40.87936081 163.4375 42.875 C165.84096513 44.74436177 167.2927475 45.90890302 168.6875 48.625 C169.3094923 55.73919514 167.43269975 61.36292044 165.07421875 68.02734375 C164.70400101 69.10448135 164.33378326 70.18161896 163.9523468 71.29139709 C162.77135092 74.71918531 161.57356407 78.14082012 160.375 81.5625 C159.5802455 83.85833147 158.78661429 86.15455211 157.99414062 88.45117188 C156.53263507 92.68338414 155.06403594 96.91299866 153.58862305 101.14038086 C151.91199881 105.95487163 150.28763284 110.78457471 148.6875 115.625 C150.72417786 114.18554346 152.73954117 112.7253641 154.75 111.25 C155.31138672 110.85683594 155.87277344 110.46367187 156.45117188 110.05859375 C165.3788696 103.42658973 169.70287091 94.16816978 173.09765625 83.8515625 C173.86765878 81.62363578 174.63784642 79.39577303 175.40820312 77.16796875 C176.58798941 73.69394811 177.76084499 70.21770983 178.92895508 66.73974609 C180.07227387 63.35422966 181.24003951 59.97789241 182.41015625 56.6015625 C182.92135765 55.03905258 182.92135765 55.03905258 183.44288635 53.44497681 C186.23067492 45.44128414 186.23067492 45.44128414 189.80615234 42.9699707 C193.92473464 41.04747707 197.23446234 40.87728845 201.6875 41.625 C202.533125 42.181875 203.37875 42.73875 204.25 43.3125 C205.4565625 43.9621875 205.4565625 43.9621875 206.6875 44.625 C208.60276502 43.93154197 210.51552483 43.22401182 212.3828125 42.41015625 C218.69836083 40.25858809 225.86335133 40.98526869 231.91015625 43.65625 C238.01535509 46.98391882 241.54935598 51.12765757 243.6875 57.625 C245.58952442 68.1976654 240.74538173 78.27781725 237.1875 88 C236.25388561 90.58298374 235.32539425 93.16757146 234.40563965 95.75552368 C233.83575721 97.35583679 233.25745627 98.9531846 232.66955566 100.54696655 C231.29797953 104.36709585 230.31595168 107.49815975 230.6875 111.625 C234.69408549 112.11360799 236.58673995 111.6789786 240.1875 109.75 C251.22778018 101.00977819 255.89738367 83.14819704 260.25 70.25 C264.34166188 58.31317751 268.21222535 49.94284784 279.6875 43.625 C287.96570062 40.09909974 297.48224956 40.73153197 305.84765625 43.67578125 C307.87420355 44.72132476 309.16993209 45.93723756 310.6875 47.625 C311.8321875 46.4184375 311.8321875 46.4184375 313 45.1875 C316.73749574 41.62384127 319.586823 41.30936007 324.6875 41.421875 C327.82243094 41.74026642 329.38713688 42.45995235 331.6875 44.625 C335.72271107 54.80074965 330.8894189 64.34012992 327.3359375 74.09765625 C326.70759506 75.84314003 326.70759506 75.84314003 326.06655884 77.62388611 C324.73699548 81.31362983 323.39987193 85.0005803 322.0625 88.6875 C321.15513074 91.19946737 320.24949343 93.71205484 319.34375 96.22460938 C317.13074377 102.36015997 314.91153605 108.49343951 312.6875 114.625 C330.42773598 105.94385459 337.97329009 87.16465706 344.6875 69.625 C345.04328125 68.72652344 345.3990625 67.82804687 345.765625 66.90234375 C347.34650305 62.46114823 347.99903152 60.50025522 346.375 55.9375 C345.5396875 54.2978125 345.5396875 54.2978125 344.6875 52.625 C343.96591641 45.89021979 345.7435049 41.12442227 349.875 35.8125 C353.37667242 33.08897701 356.2739913 31.96126733 360.6875 31.625 C366.24437446 32.47265882 369.11351208 34.31519103 372.6875 38.625 C373.97067892 42.47453676 373.75393637 45.57238135 373.6875 49.625 C374.96625 49.83125 376.245 50.0375 377.5625 50.25 C385.41083659 52.01742068 392.63196874 56.29808885 397.55859375 62.7265625 C400.69472896 68.00047846 401.13279763 72.80434597 399.8125 78.75 C397.69633671 86.21481455 394.97554228 93.51450181 392.29345703 100.79150391 C391.94395996 101.75878418 391.59446289 102.72606445 391.234375 103.72265625 C390.75242676 105.02988647 390.75242676 105.02988647 390.26074219 106.36352539 C389.43503938 108.76700955 389.43503938 108.76700955 390.6875 111.625 C393.34597645 111.54680952 395.13712619 111.09469074 397.1796875 109.3515625 C403.67287085 102.18551041 406.8787486 93.40087571 409.9921875 84.3984375 C410.28216614 83.56072311 410.57214478 82.72300873 410.87091064 81.85990906 C412.07703777 78.3579051 413.27652363 74.85400734 414.45263672 71.34179688 C421.73089501 49.69528735 421.73089501 49.69528735 431.875 44.1875 C440.09939819 40.4521827 448.93928072 40.9058787 457.625 42.8125 C461.61317613 43.7100992 461.61317613 43.7100992 465.375 42.3125 C466.138125 41.755625 466.90125 41.19875 467.6875 40.625 C471.90388576 39.4114604 474.86986666 39.31645912 479 40.875 C484.40287827 44.39315329 484.40287827 44.39315329 485.40649414 48.73681641 C485.72628819 53.16169918 484.83271487 56.48582627 483.37109375 60.5859375 C483.1175563 61.33477203 482.86401886 62.08360657 482.60279846 62.85513306 C481.79089574 65.24183253 480.95835409 67.62071719 480.125 70 C479.59173453 71.55812744 479.05982253 73.1167188 478.52929688 74.67578125 C476.39247535 80.9279173 474.23195675 87.1688474 471.94580078 93.36816406 C471.66704605 94.13230621 471.38829132 94.89644836 471.10108948 95.68374634 C470.57354678 97.12576018 470.03820272 98.56495435 469.49351501 100.00057983 C468.02851787 104.01909727 467.4120167 107.35231614 467.6875 111.625 C473.03619922 112.13439993 475.54339601 110.99208449 479.6875 107.625 C484.46129057 102.86159939 487.32737837 97.88679405 489.875 91.6875 C490.24592773 90.81158203 490.61685547 89.93566406 490.99902344 89.03320312 C493.40495569 83.19787527 495.52471535 77.288614 497.53515625 71.30859375 C497.77658859 70.592444 498.01802094 69.87629425 498.26676941 69.13844299 C499.46831881 65.55984505 500.6468384 61.97564731 501.79370117 58.37915039 C502.23201033 57.04435187 502.67055773 55.70963156 503.109375 54.375 C503.48674805 53.19421875 503.86412109 52.0134375 504.25292969 50.796875 C505.88044811 47.19838635 507.68680881 45.16752613 510.6875 42.625 C515.56719676 40.99843441 520.02615281 41.02691501 524.8125 42.75 C528.53519394 43.88299381 530.0293388 42.86739437 533.6875 41.625 C541.6361088 40.72089284 547.52552296 42.29788753 554.6875 45.625 C557.51542304 46.92557834 557.51542304 46.92557834 559.5546875 45.8828125 C560.21726562 45.50898437 560.87984375 45.13515625 561.5625 44.75 C568.87107471 40.65146595 577.58124976 40.57430369 585.66796875 42.23828125 C593.60048222 44.72197857 597.88613094 48.99665112 602.125 56 C603.81064976 63.86636553 602.47675793 70.63034256 599.58984375 77.9921875 C599.1201693 79.25520187 599.1201693 79.25520187 598.64100647 80.54373169 C597.65093926 83.20186454 596.63999807 85.85129696 595.625 88.5 C594.60842948 91.17075331 593.59684748 93.84299822 592.59828186 96.52053833 C591.97938888 98.17854018 591.34993039 99.832646 590.70872498 101.48214722 C590.42835892 102.2303775 590.14799286 102.97860779 589.85913086 103.74951172 C589.4827372 104.73019119 589.4827372 104.73019119 589.09873962 105.73068237 C588.60680308 107.99671906 588.97584433 109.44273072 589.6875 111.625 C595.37391493 111.50653302 598.55027035 109.93778095 602.69921875 106.0546875 C606.70722888 101.15688337 609.09044587 95.35166872 611.6875 89.625 C615.13082855 82.45139885 615.13082855 82.45139885 618.6875 80.625 C622.77863216 79.5162688 625.64980894 79.15127147 629.5625 80.9375 C631.6875 82.625 631.6875 82.625 633.6875 84.625 C634.26562178 90.35625671 632.96964019 94.355497 630.625 99.4375 C630.30845459 100.13746094 629.99190918 100.83742188 629.66577148 101.55859375 C623.93249916 113.86830843 615.51240354 125.21928127 602.6875 130.625 C593.53675242 133.60758155 584.52097806 133.60076508 575.6875 129.625 C570.38300724 126.07072059 567.26221778 122.49231816 564.6875 116.625 C562.62504643 104.83488082 566.99795551 94.73845398 571.25 84 C572.1962868 81.57054659 573.13563333 79.13890032 574.06272888 76.70205688 C574.63592908 75.19930384 575.22076329 73.70092188 575.81874084 72.20785522 C577.34108615 68.28342522 577.34108615 68.28342522 577.35913086 64.13916016 C576.82002941 62.4515504 576.82002941 62.4515504 575 61.9375 C571.64956426 61.48473841 570.35479815 62.62452639 567.6875 64.625 C563.98827123 68.63300009 562.21541085 72.70226728 560.35546875 77.73046875 C560.05738815 78.51640915 559.75930756 79.30234955 559.45219421 80.11210632 C555.80866739 89.80737345 552.47198933 99.61624975 549.15893555 109.4284668 C548.34024823 111.84743458 547.50899601 114.26178559 546.67578125 116.67578125 C546.43402664 117.40283768 546.19227203 118.1298941 545.94319153 118.87898254 C543.93655803 124.64671833 541.77302918 128.42181009 536.4375 131.5 C532.10201237 132.80064629 528.96557706 133.20583432 524.6875 131.625 C520.9022476 128.53499804 520.9022476 128.53499804 519.6875 125.625 C519.92366434 118.18605076 522.11669002 111.90259447 524.72265625 104.984375 C525.12077011 103.89916565 525.51888397 102.8139563 525.92906189 101.69586182 C527.1931784 98.25197065 528.47022987 94.81310209 529.75 91.375 C531.03259317 87.92236404 532.31207645 84.4687376 533.58164978 81.0112915 C534.36956229 78.86595737 535.16498801 76.7233641 535.96876526 74.58392334 C536.3259111 73.61231262 536.68305695 72.6407019 537.05102539 71.63964844 C537.36777725 70.78965271 537.68452911 69.93965698 538.01087952 69.06390381 C538.7285815 66.47692021 538.81245903 64.29643494 538.6875 61.625 C532.98326187 61.91134959 532.98326187 61.91134959 528 64.4375 C519.85524846 75.66404942 516.52543915 91.45200481 512.12329102 104.45996094 C511.15099527 107.32753055 510.16801691 110.19126248 509.18359375 113.0546875 C508.74592934 114.36262772 508.74592934 114.36262772 508.29942322 115.69699097 C506.18055904 121.83036514 503.74235432 128.42938244 497.6875 131.625 C492.60061984 132.91010657 489.52691643 132.61040161 484.6875 130.625 C483.08353641 130.79207954 481.47883266 130.9742436 479.890625 131.25390625 C469.35728947 133.0281383 459.27378931 133.50446497 450 127.4375 C449.236875 126.839375 448.47375 126.24125 447.6875 125.625 C446.94886719 126.04652344 446.21023438 126.46804687 445.44921875 126.90234375 C436.925364 131.50544193 429.39468792 134.28839888 419.8125 131.4375 C416.25120076 130.05645756 413.49476114 128.25114752 410.6875 125.625 C410.11902344 125.91246094 409.55054688 126.19992188 408.96484375 126.49609375 C399.19384742 131.33969228 391.11203505 134.52208145 380.1875 131.125 C373.7312045 128.63839375 370.07435259 124.55964096 366.54296875 118.73828125 C362.31971456 108.30549349 367.14952325 97.25772224 371.01708984 87.53393555 C371.38527832 86.58301025 371.7534668 85.63208496 372.1328125 84.65234375 C372.47844238 83.80406006 372.82407227 82.95577637 373.18017578 82.08178711 C373.83160371 78.92715804 373.23685844 77.41090603 371.6875 74.625 C369.16377099 73.26421965 369.16377099 73.26421965 366.6875 72.625 C366.38457031 73.35203125 366.08164062 74.0790625 365.76953125 74.828125 C364.88484612 76.95136932 363.99795775 79.07369639 363.109375 81.1953125 C362.20745055 83.37083356 361.32020177 85.55254427 360.453125 87.7421875 C351.16182723 110.97043193 336.93793109 126.92554679 314.6171875 137.828125 C313.97426758 138.14394531 313.33134766 138.45976562 312.66894531 138.78515625 C310.6875 139.625 310.6875 139.625 308.57324219 140.12109375 C306.25276354 140.69607961 304.65227561 141.24852882 302.6875 142.625 C300.56981206 146.25730019 299.4208966 150.12066035 298.1875 154.125 C293.79284579 166.98012389 289.34520606 177.10298628 276.6875 183.625 C270.99793575 186.22547484 265.66775429 186.06745827 259.5 186.125 C258.41396484 186.16625 257.32792969 186.2075 256.20898438 186.25 C248.23353337 186.32664097 242.93080587 184.65160312 236.6875 179.625 C234.43359375 177.17578125 234.43359375 177.17578125 233.125 174.9375 C232.66996094 174.19113281 232.21492188 173.44476563 231.74609375 172.67578125 C228.78665991 166.94256071 228.71619744 160.33467365 230.3359375 154.1484375 C234.09917592 144.7885881 240.6800695 140.11983481 249.59765625 135.9140625 C253.87446366 134.12980656 258.19697431 132.75756621 262.6875 131.625 C261.47700804 130.56168944 260.24319232 129.52488683 259 128.5 C258.31550781 127.91992188 257.63101562 127.33984375 256.92578125 126.7421875 C254.70409519 125.32115442 254.70409519 125.32115442 252.19921875 126.31640625 C251.37035156 126.74824219 250.54148437 127.18007812 249.6875 127.625 C239.84307223 132.21791084 229.52864605 134.54650184 218.9765625 130.765625 C213.58140115 128.07725109 209.83129948 124.48367416 206.6875 119.375 C204.34885537 110.60508264 205.73250138 102.8669695 208.8125 94.5 C209.12582275 93.60345703 209.43914551 92.70691406 209.76196289 91.78320312 C210.7187586 89.05680567 211.6988318 86.33998528 212.6875 83.625 C213.56955875 81.19641385 214.45100336 78.76767982 215.32568359 76.33642578 C215.84423348 74.90178164 216.37140814 73.47021451 216.90869141 72.04248047 C218.22320206 68.44672172 218.98998296 65.46136925 218.6875 61.625 C213.84497668 61.9155514 210.63739226 62.70336253 207.01586914 66.06521606 C202.25330493 71.65746517 200.22691256 79.42050693 197.9375 86.2578125 C197.2397314 88.30083183 196.54181017 90.34379903 195.84375 92.38671875 C194.76136139 95.57632117 193.68181741 98.76685031 192.60546875 101.95849609 C191.55689433 105.06084649 190.49775083 108.15943673 189.4375 111.2578125 C189.12071289 112.2079422 188.80392578 113.1580719 188.47753906 114.13699341 C185.94247084 121.5219923 183.3045003 127.04399979 176.6875 131.625 C172.72250874 132.94666375 168.74129538 133.24666227 164.69042969 132.02050781 C161.09173061 131.30989195 158.03067083 133.69617866 154.9375 135.375 C153.56986265 136.10301988 152.20006564 136.8269974 150.828125 137.546875 C150.1479834 137.91176025 149.4678418 138.27664551 148.76708984 138.65258789 C146.66673447 139.63470992 144.6693207 140.15431804 142.4296875 140.73046875 C139.76573379 141.69223439 138.88293143 142.29975264 137.40625 144.75732422 C136.3042088 147.53780317 135.40506857 150.31785502 134.5625 153.1875 C130.82911461 165.22726031 126.19808461 176.11025674 114.85766602 182.68603516 C108.378802 185.97942711 102.43005521 186.29317532 95.25 186.25 C94.18201172 186.28222656 93.11402344 186.31445312 92.01367188 186.34765625 C84.14508644 186.35726967 78.85841387 184.54465831 72.6875 179.625 C70.43359375 177.2109375 70.43359375 177.2109375 69.125 175 C68.66996094 174.26523438 68.21492187 173.53046875 67.74609375 172.7734375 C64.92456658 167.04709085 64.68448664 160.34702549 66.3359375 154.21875 C70.10670953 144.80793433 76.62728583 140.14472901 85.59765625 135.9140625 C89.87446366 134.12980656 94.19697431 132.75756621 98.6875 131.625 C94.1822161 128.26877102 94.1822161 128.26877102 88.6875 127.625 C87.18684009 128.21918394 85.70854353 128.87135205 84.25 129.5625 C75.41371891 133.20096869 66.30093321 133.63266216 57.1953125 130.69921875 C50.13727472 127.67591596 45.89130185 123.54521199 42.6875 116.625 C40.59621274 109.41219293 41.58425492 103.25220246 43.703125 96.1953125 C43.92104706 95.46299911 44.13896912 94.73068573 44.36349487 93.97618103 C47.43240217 83.90397568 51.15526105 74.05706934 54.8125 64.1875 C55.89157201 61.26693128 56.96895987 58.3457704 58.04293823 55.42332458 C58.7042717 53.62452309 59.36853031 51.82679293 60.03640747 50.03041077 C61.60225665 45.77904439 63.09060408 41.5100025 64.46044922 37.19116211 C64.71494843 36.38883652 64.96944763 35.58651093 65.23165894 34.75987244 C65.85501115 31.84048328 65.28907615 30.10744304 63.6875 27.625 C62.4911937 26.22293141 62.4911937 26.22293141 59.0625 26.1875 C54.75944357 26.2798733 52.39851877 27.53272925 49.3821106 30.56262207 C43.31804076 37.94272687 40.73744268 48.71373299 37.6328125 57.59375 C37.16395223 58.92273248 36.69461157 60.25154558 36.224823 61.5802002 C34.99688507 65.05653002 33.77460601 68.53482048 32.55383301 72.01367188 C31.33164836 75.49447308 30.10537638 78.97383191 28.87890625 82.453125 C28.63968319 83.1318718 28.40046013 83.81061859 28.15398788 84.50993347 C26.08065749 90.39082645 24.0012138 96.26954156 21.91809082 102.14697266 C21.13768909 104.35262747 20.35994076 106.55922436 19.58581543 108.76708984 C18.64711464 111.44184955 17.69671739 114.11210714 16.7421875 116.78125 C16.4845462 117.52467651 16.22690491 118.26810303 15.9614563 119.03405762 C13.92398034 124.66466296 11.70589731 128.43770746 6.5 131.5 C1.85727684 132.86998388 -1.67099763 133.02440427 -6.3125 131.625 C-9.95356189 129.12176995 -11.06951162 127.52858018 -12.21484375 123.26953125 C-12.84632493 116.91803885 -10.08864362 111.20414036 -7.875 105.375 C-7.38706282 104.05148461 -6.90086643 102.72732638 -6.41625977 101.40258789 C-5.33848121 98.46387545 -4.25089497 95.52902612 -3.15722656 92.59619141 C0.00679964 84.09429365 3.07870249 75.55848358 6.17190552 67.03063965 C7.23809689 64.09527088 8.30770664 61.16117271 9.37866211 58.22753906 C9.71574188 57.30366898 10.05282166 56.37979889 10.40011597 55.42793274 C11.0336148 53.69217596 11.66771043 51.95663682 12.30252075 50.22135925 C15.76866198 41.23358317 15.76866198 41.23358317 16.8125 31.75 C16.79445313 30.78320312 16.77640625 29.81640625 16.7578125 28.8203125 C16.73460937 28.09585938 16.71140625 27.37140625 16.6875 26.625 C15.12589515 26.54312945 13.56301517 26.48541725 12 26.4375 C10.69482422 26.38529297 10.69482422 26.38529297 9.36328125 26.33203125 C6.03513338 26.696427 4.40259656 27.67206409 1.6875 29.625 C-3.62618894 37.56301478 -6.53201941 47.17642572 -9.68359375 56.12890625 C-10.17322449 57.50138063 -10.66356153 58.87360321 -11.15455627 60.24559021 C-12.43579918 63.83121455 -13.70818341 67.41991534 -14.97839355 71.00946045 C-16.25219187 74.60505395 -17.53343633 78.1979889 -18.81445312 81.79101562 C-19.06420206 82.49186468 -19.313951 83.19271374 -19.57126808 83.91480064 C-20.80450615 87.37546242 -22.03840372 90.83588811 -23.27304077 94.29605103 C-23.5092042 94.95799658 -23.74536762 95.61994213 -23.98868752 96.30194664 C-24.4520142 97.60046722 -24.91547044 98.89894159 -25.37906456 100.19736671 C-26.74725986 104.03158489 -28.10296877 107.8700206 -29.45361328 111.71044922 C-30.06359092 113.42043893 -30.67405608 115.13025487 -31.28515625 116.83984375 C-31.54115097 117.57973038 -31.79714569 118.319617 -32.06089783 119.08192444 C-34.11992484 124.78428857 -36.28751201 128.53750645 -41.6875 131.4375 C-45.3176646 132.62669185 -47.54919457 133.1854923 -51.3125 132.625 C-55.59751096 130.35646478 -58.57655481 128.22014904 -60.3125 123.625 C-60.24808545 117.59385286 -58.72954492 112.12917226 -56.63671875 106.52734375 C-56.22077705 105.37579803 -56.22077705 105.37579803 -55.7964325 104.20098877 C-54.87334538 101.65143327 -53.93660355 99.10711775 -53 96.5625 C-52.34022963 94.74754355 -51.68156735 92.93218397 -51.02392578 91.11645508 C-49.96032233 88.18084734 -48.8957417 85.24562017 -47.82751465 82.31169128 C-44.86501475 74.17307054 -41.94669252 66.01912681 -39.04296875 57.859375 C-38.5939178 56.59806463 -38.14485672 55.33675787 -37.69578552 54.07545471 C-35.92418858 49.09885926 -34.15331385 44.12200691 -32.38290405 39.14498901 C-30.02868826 32.53060852 -27.6652928 25.91971905 -25.28146362 19.31594849 C-24.6790899 17.6430718 -24.07995521 15.96902058 -23.48587036 14.29318237 C-22.82279355 12.42343319 -22.14470242 10.5590252 -21.46484375 8.6953125 C-20.96198853 7.29756592 -20.96198853 7.29756592 -20.44897461 5.87158203 C-18.79963878 2.61117638 -16.67180711 0.88847299 -13.42578125 -0.70703125 C-8.56061177 -2.2448205 -4.78152355 -1.98478336 0 0 Z M287.6875 64.625 C286.08235849 67.66704412 286.08235849 67.66704412 284.93359375 71.15625 C284.70599869 71.78801147 284.47840363 72.41977295 284.24391174 73.07067871 C283.52275259 75.08386113 282.82375771 77.10394794 282.125 79.125 C281.65310982 80.45102599 281.17981347 81.77655245 280.70507812 83.1015625 C279.77849935 85.69796075 278.8680258 88.29909574 277.97216797 90.90625 C277.14210709 93.30904121 276.29341133 95.70551174 275.42236328 98.09375 C275.04708496 99.145625 274.67180664 100.1975 274.28515625 101.28125 C273.78447632 102.65506836 273.78447632 102.65506836 273.27368164 104.05664062 C272.60775967 106.97438287 272.76538824 108.79002655 273.6875 111.625 C276.55358129 113.05804064 278.50050783 112.93144155 281.6875 112.625 C290.96516201 107.80061576 293.46683011 98.57278418 296.74389648 89.31225586 C297.49894963 87.1904517 298.27895153 85.07894481 299.06054688 82.96679688 C299.54842497 81.60472085 300.03480438 80.24210689 300.51953125 78.87890625 C300.96014893 77.65502197 301.4007666 76.4311377 301.85473633 75.17016602 C302.78327112 71.21729188 302.64575854 68.55490976 301.6875 64.625 C299.50251244 62.09308501 299.50251244 62.09308501 296.6875 60.625 C291.91420539 60.625 291.00149685 61.33004335 287.6875 64.625 Z M440.6875 68.625 C438.87093021 72.89353171 437.46401664 77.26788976 436.0625 81.6875 C435.6809375 82.83927734 435.299375 83.99105469 434.90625 85.17773438 C429.72112132 98.01400984 429.72112132 98.01400984 429.61865234 110.99243164 C429.97137207 111.5311792 430.3240918 112.06992676 430.6875 112.625 C435.24853782 112.53377924 437.22648694 112.04866672 440.62890625 108.921875 C444.89960773 103.6666066 446.52801498 97.31505569 448.5 90.9375 C448.89380859 89.71482422 449.28761719 88.49214844 449.69335938 87.23242188 C454.02284337 75.78312516 454.02284337 75.78312516 452.5 64.1875 C450.76318987 62.45924666 450.76318987 62.45924666 448.3125 62 C444.39923347 62.93173013 442.71811925 65.33063224 440.6875 68.625 Z M100.8125 151.8125 C99.76320313 152.21855469 98.71390625 152.62460938 97.6328125 153.04296875 C94.33306702 154.81537846 92.73554629 156.51392015 90.6875 159.625 C90.18614801 162.25278044 90.18614801 162.25278044 90.6875 164.625 C91.3475 165.285 92.0075 165.945 92.6875 166.625 C96.6992568 166.54930648 99.06697148 166.05792687 102.375 163.75 C105.58767614 159.40854576 107.0823716 154.74526991 108.6875 149.625 C105.76362879 149.625 103.52279526 150.7356712 100.8125 151.8125 Z M264.8125 151.8125 C263.76320313 152.21855469 262.71390625 152.62460938 261.6328125 153.04296875 C258.33306702 154.81537846 256.73554629 156.51392015 254.6875 159.625 C254.18614801 162.25278044 254.18614801 162.25278044 254.6875 164.625 C255.3475 165.285 256.0075 165.945 256.6875 166.625 C260.6992568 166.54930648 263.06697148 166.05792687 266.375 163.75 C269.58767614 159.40854576 271.0823716 154.74526991 272.6875 149.625 C269.76362879 149.625 267.52279526 150.7356712 264.8125 151.8125 Z " fill="#121212" transform="translate(310.3125,41.375)"/>
<path d="M0 0 C14.88911821 13.85477362 24.56641763 33.67043299 25.625 53.96875 C26.30206691 76.22732468 21.12394065 96.14444301 6.25 113.1875 C5.755 113.83589844 5.26 114.48429688 4.75 115.15234375 C-7.35139052 130.43034928 -27.5824267 139.38273946 -46.48046875 141.87109375 C-69.64542455 144.11286367 -90.81723557 137.63171797 -109.140625 123.3203125 C-124.44353737 110.35968264 -134.60173975 91.9940872 -137.75 72.1875 C-139.77923856 47.31419241 -134.36345921 25.4491705 -118.30859375 6.0859375 C-86.42354023 -30.03423 -35.69509375 -29.79764347 0 0 Z M-108 14.375 C-120.91847573 29.85025738 -126.05429092 48.19304747 -124.75 68.1875 C-122.27767673 86.97326341 -113.08340468 103.16017433 -98.41015625 115.08984375 C-82.6299789 126.77791676 -64.39881456 131.19104412 -45.02709961 128.51489258 C-32.50603724 126.49264223 -20.21910411 120.68275752 -10.75 112.1875 C-9.66525391 111.24003906 -9.66525391 111.24003906 -8.55859375 110.2734375 C0.59152806 101.75809571 6.81395699 91.17748168 10.25 79.1875 C10.58644531 78.04474609 10.58644531 78.04474609 10.9296875 76.87890625 C15.54693724 58.12528231 11.21973388 38.43120054 1.47753906 22.07617188 C-9.10819651 5.78912924 -24.72212582 -2.68572176 -43.1015625 -7.41796875 C-67.59880259 -11.06726263 -90.82540166 -3.70884178 -108 14.375 Z " fill="#291E17" transform="translate(149.75,51.8125)"/>
<path d="M0 0 C14.88911821 13.85477362 24.56641763 33.67043299 25.625 53.96875 C26.04125314 67.88239666 24.65464217 80.26018021 19.25 93.1875 C18.92 93.1875 18.59 93.1875 18.25 93.1875 C19.79545455 74.64204545 19.79545455 74.64204545 23.25 71.1875 C23.34986975 68.34414952 23.38877881 65.53052837 23.375 62.6875 C23.37886719 61.88957031 23.38273438 61.09164062 23.38671875 60.26953125 C23.7589961 56.4191068 23.7589961 56.4191068 22.25 53.1875 C21.85545777 51.34150312 21.50823134 49.48524178 21.1875 47.625 C20.92259766 46.10712891 20.92259766 46.10712891 20.65234375 44.55859375 C20.51957031 43.77613281 20.38679687 42.99367188 20.25 42.1875 C19.59 42.8475 18.93 43.5075 18.25 44.1875 C16.6 44.1875 14.95 44.1875 13.25 44.1875 C13.25 51.7775 13.25 59.3675 13.25 67.1875 C12.92 67.1875 12.59 67.1875 12.25 67.1875 C12.21036133 66.61942627 12.17072266 66.05135254 12.12988281 65.46606445 C10.49178451 43.08249199 5.4992574 23.71422406 -11.75 8.1875 C-27.50209762 -4.4699984 -45.90195643 -8.21608555 -65.75 -6.8125 C-83.60652422 -4.39228923 -99.63210721 4.70561593 -110.6484375 19.046875 C-122.97649467 37.47021694 -125.67483039 56.46018852 -122.75 78.1875 C-123.41 77.8575 -124.07 77.5275 -124.75 77.1875 C-124.75 75.2075 -124.75 73.2275 -124.75 71.1875 C-125.41 71.1875 -126.07 71.1875 -126.75 71.1875 C-126.92488133 62.89035239 -126.5151122 54.64188955 -126.01782227 46.36254883 C-125.94519165 45.03839966 -125.94519165 45.03839966 -125.87109375 43.6875 C-125.8239624 42.8934375 -125.77683105 42.099375 -125.72827148 41.28125 C-125.64511303 38.99155087 -125.64511303 38.99155087 -126.75 36.1875 C-128.73 36.1875 -130.71 36.1875 -132.75 36.1875 C-136.9092164 49.5811671 -136.04247167 63.32584259 -135.75 77.1875 C-136.08 77.1875 -136.41 77.1875 -136.75 77.1875 C-141.45355528 56.08423109 -136.84502414 34.40293013 -125.75 16.1875 C-113.08366614 -3.30399888 -94.11287691 -16.08365317 -71.5 -21.1875 C-44.43079749 -25.0952345 -20.84584753 -17.40175098 0 0 Z " fill="#F31764" transform="translate(149.75,51.8125)"/>
<path d="M0 0 C8.79175599 6.2119357 14.97876318 14.18428658 17.7109375 24.6796875 C19.11665204 36.10826099 17.6410952 45.99679313 10.65625 55.46484375 C2.36465379 65.20531749 -6.45069804 69.8379385 -19.2265625 71.0546875 C-31.24614045 70.46356072 -40.411305 66.00994541 -48.6015625 57.3671875 C-56.65247895 47.87287966 -58.20728739 37.84940049 -57.2890625 25.6796875 C-54.88279099 14.83084053 -48.38016449 5.98583923 -39.2890625 -0.3203125 C-26.2308508 -6.81008639 -12.9503313 -7.46964502 0 0 Z M-38.2890625 16.6796875 C-39.0109375 17.4840625 -39.7328125 18.2884375 -40.4765625 19.1171875 C-44.52017456 24.83401835 -45.1211708 30.85845403 -44.2890625 37.6796875 C-42.58555365 43.49924206 -39.98409153 47.76716331 -35.2890625 51.6796875 C-34.4228125 52.4015625 -33.5565625 53.1234375 -32.6640625 53.8671875 C-26.03983589 57.42464253 -18.72008378 58.62642518 -11.41796875 56.5625 C-4.3192054 53.61879263 0.4565925 48.57945759 3.7109375 41.6796875 C6.25727752 33.38775975 4.52620208 26.27019641 0.7109375 18.6796875 C-2.43379212 13.23688623 -7.45212682 10.62266746 -13.2890625 8.6796875 C-23.19809884 7.31687659 -31.58084899 8.8534384 -38.2890625 16.6796875 Z " fill="#A14209" transform="translate(113.2890625,79.3203125)"/>
<path d="M0 0 C8.79175599 6.2119357 14.97876318 14.18428658 17.7109375 24.6796875 C19.05962166 35.64459934 17.74127438 45.4740698 11.265625 54.75 C9.8984375 56.4296875 9.8984375 56.4296875 7.7109375 58.6796875 C7.3809375 58.0196875 7.0509375 57.3596875 6.7109375 56.6796875 C5.7209375 56.1846875 5.7209375 56.1846875 4.7109375 55.6796875 C6.0309375 55.6796875 7.3509375 55.6796875 8.7109375 55.6796875 C8.0509375 54.3596875 7.3909375 53.0396875 6.7109375 51.6796875 C5.6384375 52.3603125 4.5659375 53.0409375 3.4609375 53.7421875 C0.04936017 55.71439752 0.04936017 55.71439752 -2.7265625 55.4296875 C-3.2421875 55.1821875 -3.7578125 54.9346875 -4.2890625 54.6796875 C-4.2890625 55.3396875 -4.2890625 55.9996875 -4.2890625 56.6796875 C-5.2790625 56.1846875 -5.2790625 56.1846875 -6.2890625 55.6796875 C-6.2890625 54.6896875 -6.2890625 53.6996875 -6.2890625 52.6796875 C-5.5465625 52.1021875 -4.8040625 51.5246875 -4.0390625 50.9296875 C0.79094292 46.97786488 3.21529666 41.85607095 3.94921875 35.671875 C4.21427997 28.1106548 2.13429658 21.77620188 -2.5390625 15.8046875 C-9.88362418 10.12934438 -15.94916719 8.61262957 -25.2890625 9.6796875 C-29.53191377 10.76106355 -33.44369072 12.59677779 -37.2890625 14.6796875 C-37.6190625 13.0296875 -37.9490625 11.3796875 -38.2890625 9.6796875 C-36.9690625 10.0096875 -35.6490625 10.3396875 -34.2890625 10.6796875 C-33.9590625 9.3596875 -33.6290625 8.0396875 -33.2890625 6.6796875 C-39.2290625 7.1746875 -39.2290625 7.1746875 -45.2890625 7.6796875 C-45.2890625 8.6696875 -45.2890625 9.6596875 -45.2890625 10.6796875 C-45.9490625 11.0096875 -46.6090625 11.3396875 -47.2890625 11.6796875 C-47.6190625 12.6696875 -47.9490625 13.6596875 -48.2890625 14.6796875 C-47.6290625 15.0096875 -46.9690625 15.3396875 -46.2890625 15.6796875 C-48.5990625 16.0096875 -50.9090625 16.3396875 -53.2890625 16.6796875 C-51.08046008 8.82687889 -44.37115987 3.09615067 -37.66796875 -1.06640625 C-25.42541889 -7.51937588 -11.96968831 -6.90401817 0 0 Z " fill="#88481E" transform="translate(113.2890625,79.3203125)"/>
<path d="M0 0 C-3.82635635 1.27545212 -5.77738663 0.49743678 -9.6875 -0.4375 C-23.48142052 -3.45349608 -40.16473665 -4.11158778 -52.57421875 3.390625 C-54.63404056 5.71568414 -54.68680288 7.97660378 -55 11 C-54.12085938 10.855625 -53.24171875 10.71125 -52.3359375 10.5625 C-43.06053128 9.19111979 -33.81664809 8.75822659 -24.4463501 8.70043945 C-22.46789682 8.68769579 -20.48954636 8.66133671 -18.51123047 8.63476562 C-11.5735327 8.63836448 -6.29373639 9.04594569 0 12 C0.8353125 12.31324219 1.670625 12.62648438 2.53125 12.94921875 C4.35416667 13.6328125 6.17708333 14.31640625 8 15 C8 15.66 8 16.32 8 17 C8.66 17 9.32 17 10 17 C10 17.66 10 18.32 10 19 C11.65 19 13.3 19 15 19 C15.99 20.98 16.98 22.96 18 25 C15.06050369 23.59992388 12.40903478 21.96895368 9.6875 20.1875 C-5.71978477 10.83307711 -25.08545137 8.33179189 -42.61108398 12.17773438 C-59.83254693 16.53685847 -74.77834949 26.47802423 -84.11035156 41.82617188 C-94.03451877 59.069738 -95.62169489 76.52455223 -93 96 C-93.66 95.67 -94.32 95.34 -95 95 C-95 93.02 -95 91.04 -95 89 C-95.66 89 -96.32 89 -97 89 C-97.17488133 80.70285239 -96.7651122 72.45438955 -96.26782227 64.17504883 C-96.19519165 62.85089966 -96.19519165 62.85089966 -96.12109375 61.5 C-96.0739624 60.7059375 -96.02683105 59.911875 -95.97827148 59.09375 C-95.89511303 56.80405087 -95.89511303 56.80405087 -97 54 C-98.98 54 -100.96 54 -103 54 C-107.1592164 67.3936671 -106.29247167 81.13834259 -106 95 C-106.33 95 -106.66 95 -107 95 C-111.70355528 73.89673109 -107.09502414 52.21543013 -96 34 C-83.33366614 14.50850112 -64.36287691 1.72884683 -41.75 -3.375 C-27.40865322 -5.44532976 -13.77146801 -4.30839223 0 0 Z " fill="#E0224B" transform="translate(120,34)"/>
<path d="M0 0 C0.33 0 0.66 0 1 0 C1.19916016 1.28197266 1.19916016 1.28197266 1.40234375 2.58984375 C1.57894531 3.69457031 1.75554687 4.79929687 1.9375 5.9375 C2.11152344 7.03964844 2.28554687 8.14179687 2.46484375 9.27734375 C2.71845136 11.90426929 2.71845136 11.90426929 4 13 C4.12798061 15.72033201 4.18522499 18.4040837 4.1875 21.125 C4.19974609 21.87265625 4.21199219 22.6203125 4.22460938 23.390625 C4.23736987 28.27363936 3.5571553 32.32291259 2 37 C1.61328125 38.26457031 1.61328125 38.26457031 1.21875 39.5546875 C0.9815625 40.32039063 0.744375 41.08609375 0.5 41.875 C-0.47174861 45.01667268 -1.15410478 48.0020304 -1.625 51.25 C-5.23371203 68.10059751 -21.43603979 81.07203102 -35 90 C-35.92296875 90.60972656 -36.8459375 91.21945313 -37.796875 91.84765625 C-38.52390625 92.22792969 -39.2509375 92.60820312 -40 93 C-40.66 92.67 -41.32 92.34 -42 92 C-41.67 90.68 -41.34 89.36 -41 88 C-40.01 88 -39.02 88 -38 88 C-37.01 87.01 -37.01 87.01 -36 86 C-36.556875 84.8553125 -36.556875 84.8553125 -37.125 83.6875 C-37.558125 82.3571875 -37.558125 82.3571875 -38 81 C-37.34 80.01 -36.68 79.02 -36 78 C-37.32 77.67 -38.64 77.34 -40 77 C-39.443125 76.5875 -38.88625 76.175 -38.3125 75.75 C-25.01350853 65.68589835 -15.83214183 54.20878644 -11 38 C-10.57074219 36.74123047 -10.57074219 36.74123047 -10.1328125 35.45703125 C-6.95884142 24.9829267 -7.24975523 13.85676329 -7 3 C-5.5459375 2.5359375 -5.5459375 2.5359375 -4.0625 2.0625 C-1.15934208 1.30476658 -1.15934208 1.30476658 0 0 Z " fill="#391B07" transform="translate(170,93)"/>
<path d="M0 0 C0.33 0 0.66 0 1 0 C2.24208709 7.98236386 1.72361525 15.53467199 1.0625 23.5625 C0.96259766 24.85736328 0.86269531 26.15222656 0.75976562 27.48632812 C0.51397355 30.65821629 0.26053169 33.82929428 0 37 C0.66 37 1.32 37 2 37 C2.3403125 38.3921875 2.3403125 38.3921875 2.6875 39.8125 C5.1095537 48.23040691 9.41943576 55.97835589 13.66796875 63.58984375 C14.83587562 65.70303595 15.93856196 67.83184931 17 70 C15.02 69.34 13.04 68.68 11 68 C10.01 68.99 9.02 69.98 8 71 C7.34 70.67 6.68 70.34 6 70 C5.34 71.32 4.68 72.64 4 74 C-4.70590077 60.99515567 -9.78330892 48.90179147 -10 33 C-10.01369629 32.28811523 -10.02739258 31.57623047 -10.04150391 30.84277344 C-10.39144509 11.35568736 -10.39144509 11.35568736 -6 2 C-4.02 2 -2.04 2 0 2 C0 1.34 0 0.68 0 0 Z " fill="#883B10" transform="translate(23,86)"/>
<path d="M0 0 C10.29576154 3.99321592 17.00273476 17.66808982 21.34375 27.12109375 C30.3375052 47.70804357 31.0074347 70.90148761 22.8671875 91.92578125 C22.43792969 92.95251953 22.43792969 92.95251953 22 94 C21.67 94 21.34 94 21 94 C22.54545455 75.45454545 22.54545455 75.45454545 26 72 C26.09986975 69.15664952 26.13877881 66.34302837 26.125 63.5 C26.12886719 62.70207031 26.13273437 61.90414062 26.13671875 61.08203125 C26.5089961 57.2316068 26.5089961 57.2316068 25 54 C24.60545777 52.15400312 24.25823134 50.29774178 23.9375 48.4375 C23.76089844 47.42558594 23.58429688 46.41367188 23.40234375 45.37109375 C23.20318359 44.19740234 23.20318359 44.19740234 23 43 C22.34 43.66 21.68 44.32 21 45 C19.35 45 17.7 45 16 45 C16 52.59 16 60.18 16 68 C15.67 68 15.34 68 15 68 C14.94054199 67.1478894 14.94054199 67.1478894 14.87988281 66.27856445 C13.18015915 43.05292051 7.56755841 25.63545824 -9 9 C-7.68 8.67 -6.36 8.34 -5 8 C-4.38125 8.804375 -3.7625 9.60875 -3.125 10.4375 C-1.25835959 13.03874519 -1.25835959 13.03874519 1 14 C1.33 13.01 1.66 12.02 2 11 C3.65 11 5.3 11 7 11 C6.20890398 9.72881136 5.41709922 8.45806377 4.625 7.1875 C4.18414062 6.47980469 3.74328125 5.77210937 3.2890625 5.04296875 C2.21811524 3.34567961 1.11323761 1.66985642 0 0 Z " fill="#C64335" transform="translate(147,51)"/>
<path d="M0 0 C-0.33 1.32 -0.66 2.64 -1 4 C-0.01 4 0.98 4 2 4 C2 4.99 2 5.98 2 7 C3.32 6.67 4.64 6.34 6 6 C7.42944945 8.35438733 8.08661261 9.48032433 7.625 12.25 C7.41875 12.8275 7.2125 13.405 7 14 C5.35 14 3.7 14 2 14 C2.66 12.68 3.32 11.36 4 10 C3.443125 10.144375 2.88625 10.28875 2.3125 10.4375 C1.549375 10.623125 0.78625 10.80875 0 11 C-1.06734375 11.26876953 -1.06734375 11.26876953 -2.15625 11.54296875 C-5.7318572 12.11761991 -9.20904091 11.97860577 -12.8125 11.875 C-18.90857625 11.78246781 -23.51433116 12.25716558 -29 15 C-29.825 15.391875 -30.65 15.78375 -31.5 16.1875 C-31.995 16.455625 -32.49 16.72375 -33 17 C-33.33 15.35 -33.66 13.7 -34 12 C-32.68 12.33 -31.36 12.66 -30 13 C-29.67 11.68 -29.34 10.36 -29 9 C-34.94 9.495 -34.94 9.495 -41 10 C-41 10.99 -41 11.98 -41 13 C-41.66 13.33 -42.32 13.66 -43 14 C-43.33 14.99 -43.66 15.98 -44 17 C-43.34 17.33 -42.68 17.66 -42 18 C-44.31 18.33 -46.62 18.66 -49 19 C-46.79139758 11.14719139 -40.08209737 5.41646317 -33.37890625 1.25390625 C-22.36656812 -4.55062665 -11.48693395 -4.18612777 0 0 Z " fill="#C43629" transform="translate(109,77)"/>
<path d="M0 0 C2 2 2 2 2 5 C1.34 5.33 0.68 5.66 0 6 C-0.13921875 6.61875 -0.2784375 7.2375 -0.421875 7.875 C-1.35314731 11.29805499 -3.61130235 12.54739771 -6.421875 14.5390625 C-15.03065146 19.41736916 -24.18773124 21.33396332 -33.8125 19.125 C-37 18 -37 18 -40 16 C-40 15.34 -40 14.68 -40 14 C-41.32 13.67 -42.64 13.34 -44 13 C-43.34 11.35 -42.68 9.7 -42 8 C-39.525 8.99 -39.525 8.99 -37 10 C-36.67 9.01 -36.34 8.02 -36 7 C-35.01257813 7.0721875 -34.02515625 7.144375 -33.0078125 7.21875 C-31.72648437 7.3115625 -30.44515625 7.404375 -29.125 7.5 C-27.84882812 7.5928125 -26.57265625 7.685625 -25.2578125 7.78125 C-21.53399852 8.03129027 -18.64425583 7.76721175 -15 7 C-14.67 6.01 -14.34 5.02 -14 4 C-13.34 4.33 -12.68 4.66 -12 5 C-11.67 4.67 -11.34 4.34 -11 4 C-10.278125 3.87625 -9.55625 3.7525 -8.8125 3.625 C-5.5492257 2.89982793 -2.93763047 1.57129072 0 0 Z " fill="#6C310C" transform="translate(120,130)"/>
<path d="M0 0 C10.28667285 -0.74812166 20.39581339 6.66061898 27.9375 13.0859375 C32.17819098 17.02142723 35.15208068 20.06456474 36 26 C36.66 26.33 37.32 26.66 38 27 C36 28 36 28 32 28 C31.67 28.66 31.34 29.32 31 30 C28 29 28 29 26.625 27.0625 C25.1295392 24.79314278 25.1295392 24.79314278 22.4375 24.0625 C20 23 20 23 18.6875 20.375 C18.460625 19.59125 18.23375 18.8075 18 18 C16.35 18 14.7 18 13 18 C13 17.34 13 16.68 13 16 C12.34 16 11.68 16 11 16 C11 15.34 11 14.68 11 14 C10.18595703 13.79697266 10.18595703 13.79697266 9.35546875 13.58984375 C8.57816406 13.39519531 7.80085938 13.20054688 7 13 C5.63294922 12.66162109 5.63294922 12.66162109 4.23828125 12.31640625 C3.27277344 12.06761719 2.30726562 11.81882812 1.3125 11.5625 C0.33925781 11.31628906 -0.63398437 11.07007813 -1.63671875 10.81640625 C-4 10 -4 10 -5 8 C-4.34 7.67 -3.68 7.34 -3 7 C-2.67 6.34 -2.34 5.68 -2 5 C0.64 5 3.28 5 6 5 C6 4.34 6 3.68 6 3 C3.03 2.505 3.03 2.505 0 2 C0 1.34 0 0.68 0 0 Z " fill="#EC1A58" transform="translate(117,35)"/>
<path d="M0 0 C-3.82635635 1.27545212 -5.77738663 0.49743678 -9.6875 -0.4375 C-23.48142052 -3.45349608 -40.16473665 -4.11158778 -52.57421875 3.390625 C-54.63404056 5.71568414 -54.68680288 7.97660378 -55 11 C-54.12085937 10.855625 -53.24171875 10.71125 -52.3359375 10.5625 C-43.06053128 9.19111979 -33.81664809 8.75822659 -24.4463501 8.70043945 C-22.46789682 8.68769579 -20.48954636 8.66133671 -18.51123047 8.63476562 C-11.5735327 8.63836448 -6.29373639 9.04594569 0 12 C0.8353125 12.31324219 1.670625 12.62648438 2.53125 12.94921875 C4.35416667 13.6328125 6.17708333 14.31640625 8 15 C8 15.66 8 16.32 8 17 C8.66 17 9.32 17 10 17 C10 17.66 10 18.32 10 19 C11.65 19 13.3 19 15 19 C15.99 20.98 16.98 22.96 18 25 C15.06050369 23.59992388 12.40903478 21.96895368 9.6875 20.1875 C-5.71631374 10.83518452 -25.09029649 8.32583032 -42.61230469 12.17895508 C-49.52152291 13.92469763 -55.83269909 16.41278094 -62 20 C-62.71285156 20.39832031 -63.42570312 20.79664062 -64.16015625 21.20703125 C-65.78349922 22.12036338 -67.39363213 23.0571319 -69 24 C-69.22732116 21.19637237 -69.34081872 19.53813483 -67.8125 17.125 C-66 16 -66 16 -63.3125 16.3125 C-62.1678125 16.6528125 -62.1678125 16.6528125 -61 17 C-61 16.34 -61 15.68 -61 15 C-60.01 14.34 -59.02 13.68 -58 13 C-58 12.01 -58 11.02 -58 10 C-58.928125 10.185625 -59.85625 10.37125 -60.8125 10.5625 C-64 11 -64 11 -67 10 C-66.421875 7.6953125 -66.421875 7.6953125 -65 5 C-62.68747032 3.68633785 -60.7184157 2.76369132 -58.25 1.875 C-57.57606201 1.62347168 -56.90212402 1.37194336 -56.20776367 1.11279297 C-37.39884932 -5.67839805 -18.98901705 -5.94069807 0 0 Z " fill="#EA306D" transform="translate(120,34)"/>
<path d="M0 0 C0.33 0 0.66 0 1 0 C1.13277344 0.85464844 1.26554688 1.70929688 1.40234375 2.58984375 C1.57894531 3.69457031 1.75554687 4.79929687 1.9375 5.9375 C2.11152344 7.03964844 2.28554687 8.14179687 2.46484375 9.27734375 C2.71845136 11.90426929 2.71845136 11.90426929 4 13 C4.98775037 30.19065552 4.98775037 30.19065552 1 38 C0.01 37.34 -0.98 36.68 -2 36 C-2 35.34 -2 34.68 -2 34 C-4.475 34.495 -4.475 34.495 -7 35 C-7.33 36.98 -7.66 38.96 -8 41 C-9.485 41.495 -9.485 41.495 -11 42 C-10.57062001 37.9924534 -10.10185584 34.35967843 -9 30.46875 C-7.6075086 25.04069434 -7.54252504 19.57718767 -7.375 14 C-7.33632812 12.93910156 -7.29765625 11.87820312 -7.2578125 10.78515625 C-7.16430306 8.19026933 -7.07855098 5.59537551 -7 3 C-5.5459375 2.5359375 -5.5459375 2.5359375 -4.0625 2.0625 C-1.15934208 1.30476658 -1.15934208 1.30476658 0 0 Z " fill="#9B4009" transform="translate(170,93)"/>
<path d="M0 0 C2.475 0.495 2.475 0.495 5 1 C4.14700232 2.14670384 3.29250133 3.29228934 2.4375 4.4375 C1.88964844 5.17484375 1.34179688 5.9121875 0.77734375 6.671875 C-0.36381174 8.16666329 -1.53632118 9.63830619 -2.74609375 11.078125 C-15.61167439 26.5512064 -18.17231689 44.82202691 -16.765625 64.234375 C-16.54831866 66.49691747 -16.30321061 68.74757829 -16 71 C-16.66 70.67 -17.32 70.34 -18 70 C-18 68.02 -18 66.04 -18 64 C-18.66 64 -19.32 64 -20 64 C-20.17488133 55.70285239 -19.7651122 47.45438955 -19.26782227 39.17504883 C-19.19519165 37.85089966 -19.19519165 37.85089966 -19.12109375 36.5 C-19.0739624 35.7059375 -19.02683105 34.911875 -18.97827148 34.09375 C-18.89511303 31.80405087 -18.89511303 31.80405087 -20 29 C-21.98 29 -23.96 29 -26 29 C-30.1592164 42.3936671 -29.29247167 56.13834259 -29 70 C-29.33 70 -29.66 70 -30 70 C-33.01567147 56.46969744 -33.11420284 37.70527943 -27 25 C-24.4360118 22.80535457 -22.31272903 22.28978147 -19 22 C-17.576875 21.6596875 -17.576875 21.6596875 -16.125 21.3125 C-14 21 -14 21 -12 21 C-11.67 19.68 -11.34 18.36 -11 17 C-10.34 17 -9.68 17 -9 17 C-9.0721875 16.38511719 -9.144375 15.77023438 -9.21875 15.13671875 C-9.3115625 14.32847656 -9.404375 13.52023438 -9.5 12.6875 C-9.5928125 11.88699219 -9.685625 11.08648437 -9.78125 10.26171875 C-10 8 -10 8 -10 5 C-5.25 5.875 -5.25 5.875 -3 7 C-3 6.01 -3 5.02 -3 4 C-2.34 3.34 -1.68 2.68 -1 2 C-0.67 1.34 -0.34 0.68 0 0 Z " fill="#BE3B26" transform="translate(43,59)"/>
<path d="M0 0 C3.60549148 2.66492848 4.84539972 4.03804272 5.5625 8.5 C4.91877781 12.50538252 3.84054174 14.15945826 1 17 C-1.90295805 18.45147903 -3.77261779 18.37239025 -7 18 C-10.29725214 15.82256934 -12.46837904 14.21960102 -14.0625 10.5625 C-13.97547234 6.99436584 -12.94240276 4.9783509 -11 2 C-7.20255861 -1.18164009 -4.69210947 -1.56403649 0 0 Z " fill="#D04648" transform="translate(134,67)"/>
<path d="M0 0 C0 0.33 0 0.66 0 1 C-1.99954746 1.04254356 -4.00041636 1.04080783 -6 1 C-6.495 0.505 -6.495 0.505 -7 0 C-9.76021008 -0.10069436 -12.49000634 -0.13868592 -15.25 -0.125 C-16.01441406 -0.12886719 -16.77882812 -0.13273437 -17.56640625 -0.13671875 C-21.51019849 -0.12990736 -25.14975199 0.0297375 -29 1 C-29 1.99 -29 2.98 -29 4 C-29.66 4 -30.32 4 -31 4 C-31 4.66 -31 5.32 -31 6 C-30.278125 5.814375 -29.55625 5.62875 -28.8125 5.4375 C-25.87173027 4.98004693 -23.85896942 5.26483643 -21 6 C-21 6.33 -21 6.66 -21 7 C-15.06 7.99 -15.06 7.99 -9 9 C-9 9.66 -9 10.32 -9 11 C-10.62808594 11.14695312 -10.62808594 11.14695312 -12.2890625 11.296875 C-13.73446565 11.44704676 -15.17977353 11.59813732 -16.625 11.75 C-17.33785156 11.811875 -18.05070312 11.87375 -18.78515625 11.9375 C-23.84175879 12.49419019 -26.83040257 13.91975685 -31 17 C-31.66 17 -32.32 17 -33 17 C-33.33 15.35 -33.66 13.7 -34 12 C-32.68 12.33 -31.36 12.66 -30 13 C-29.67 11.68 -29.34 10.36 -29 9 C-34.94 9.495 -34.94 9.495 -41 10 C-41 10.99 -41 11.98 -41 13 C-41.66 13.33 -42.32 13.66 -43 14 C-43.33 14.99 -43.66 15.98 -44 17 C-43.34 17.33 -42.68 17.66 -42 18 C-44.31 18.33 -46.62 18.66 -49 19 C-46.79139758 11.14719139 -40.08209737 5.41646317 -33.37890625 1.25390625 C-22.36656812 -4.55062665 -11.48693395 -4.18612777 0 0 Z " fill="#BF3A26" transform="translate(109,77)"/>
<path d="M0 0 C0.66 0.33 1.32 0.66 2 1 C3.66194453 1.35613097 5.328451 1.69208308 7 2 C7 3.32 7 4.64 7 6 C6.01 6 5.02 6 4 6 C4 6.99 4 7.98 4 9 C1.03 8.505 1.03 8.505 -2 8 C-2 11.63 -2 15.26 -2 19 C-2.66 19.33 -3.32 19.66 -4 20 C-4.33 20.99 -4.66 21.98 -5 23 C-5.66 23 -6.32 23 -7 23 C-7.33 24.32 -7.66 25.64 -8 27 C-8 25.68 -8 24.36 -8 23 C-8.62648438 23.28875 -9.25296875 23.5775 -9.8984375 23.875 C-10.71570312 24.24625 -11.53296875 24.6175 -12.375 25 C-13.59316406 25.556875 -13.59316406 25.556875 -14.8359375 26.125 C-17 27 -17 27 -19 27 C-16.93020206 19.48336537 -14.04747208 10.81723741 -7.4296875 6.2109375 C-5 5 -5 5 -3 5 C-2.690625 4.360625 -2.38125 3.72125 -2.0625 3.0625 C-1 1 -1 1 0 0 Z " fill="#CC3132" transform="translate(36,57)"/>
<path d="M0 0 C0.66 0 1.32 0 2 0 C2.33 1.32 2.66 2.64 3 4 C7.07964281 2.69844994 7.07964281 2.69844994 11 1 C11.66 1.33 12.32 1.66 13 2 C15.07338717 8.22016152 15.1418298 16.24376833 12.5 22.3125 C12.005 23.199375 11.51 24.08625 11 25 C8.66666667 25 6.33333333 25 4 25 C3.67 25.66 3.34 26.32 3 27 C2.34 27 1.68 27 1 27 C1.11409593 25.54077307 1.24165544 24.08259402 1.375 22.625 C1.44460937 21.81289062 1.51421875 21.00078125 1.5859375 20.1640625 C2 18 2 18 4 16 C3.65428657 10.35334727 1.90939746 5.29587597 0 0 Z " fill="#A1440C" transform="translate(116,100)"/>
<path d="M0 0 C0.33 0 0.66 0 1 0 C1 1.65 1 3.3 1 5 C2.65 4.67 4.3 4.34 6 4 C7.625 5.4375 7.625 5.4375 9 8 C8.79375395 10.29162273 8.26433186 12.36325637 7.65625 14.58203125 C6.96731349 16.94547041 6.96731349 16.94547041 6.65625 19.19921875 C5.55561282 26.16575183 1.99128634 31.29053959 -2 37 C-2.33 36.34 -2.66 35.68 -3 35 C-3.66 34.67 -4.32 34.34 -5 34 C-3.515 33.505 -3.515 33.505 -2 33 C-0.79117904 30.99983534 -0.79117904 30.99983534 0 29 C0.66 29 1.32 29 2 29 C1.67 27.02 1.34 25.04 1 23 C0.34 23.33 -0.32 23.66 -1 24 C-1 23.34 -1 22.68 -1 22 C-1.66 22 -2.32 22 -3 22 C-3.33 20.68 -3.66 19.36 -4 18 C-4.66 19.98 -5.32 21.96 -6 24 C-6.66 23.67 -7.32 23.34 -8 23 C-7.52269162 21.5410574 -7.04308958 20.08286504 -6.5625 18.625 C-6.29566406 17.81289062 -6.02882812 17.00078125 -5.75390625 16.1640625 C-5 14 -5 14 -4 12 C-3.34 12 -2.68 12 -2 12 C-1.34 8.04 -0.68 4.08 0 0 Z " fill="#6F2E06" transform="translate(162,123)"/>
<path d="M0 0 C3.70953944 0.55684036 5.25975843 1.94835464 7.6875 4.75 C8.28949219 5.42546875 8.89148438 6.1009375 9.51171875 6.796875 C11.157918 9.23376838 11.47983001 11.14149577 12 14 C12.66 14.33 13.32 14.66 14 15 C12 16 12 16 8 16 C7.67 16.66 7.34 17.32 7 18 C4 17 4 17 2.625 15.0625 C1.1295392 12.79314278 1.1295392 12.79314278 -1.5625 12.0625 C-4 11 -4 11 -5.3125 8.375 C-5.6528125 7.199375 -5.6528125 7.199375 -6 6 C-7.65 6 -9.3 6 -11 6 C-11 5.67 -11 5.34 -11 5 C-9.35 5 -7.7 5 -6 5 C-5.67 3.68 -5.34 2.36 -5 1 C-4.34 1 -3.68 1 -3 1 C-3 1.66 -3 2.32 -3 3 C-2.01 3 -1.02 3 0 3 C0 2.01 0 1.02 0 0 Z " fill="#E02249" transform="translate(141,47)"/>
<path d="M0 0 C0.33 0 0.66 0 1 0 C1.10957031 0.86882812 1.21914062 1.73765625 1.33203125 2.6328125 C2.56580091 11.60021151 3.83398383 17.94869745 11 24 C19.30830997 29.31303942 26.45132579 29.40604593 35.875 27.47265625 C36.57625 27.31667969 37.2775 27.16070312 38 27 C37 30 37 30 34.5 31.8125 C30.33258421 33.22644464 28.31664868 32.68853847 24.19140625 31.55078125 C21.42566631 30.85564875 18.83708068 30.85450868 16 31 C15.67 31.66 15.34 32.32 15 33 C13.68 32.67 12.36 32.34 11 32 C10.34 32.99 9.68 33.98 9 35 C10.32 35.66 11.64 36.32 13 37 C12.67 37.66 12.34 38.32 12 39 C12.99 39.33 13.98 39.66 15 40 C14.01 40.495 14.01 40.495 13 41 C10.21060129 39.88536076 7.65606996 38.41371466 5 37 C5.99 33.7 6.98 30.4 8 27 C8.66 27 9.32 27 10 27 C10 26.34 10 25.68 10 25 C7.69 25.33 5.38 25.66 3 26 C3.20625 25.401875 3.4125 24.80375 3.625 24.1875 C4.30671915 21.71549154 4.30671915 21.71549154 2 19 C1.875 16.3125 1.875 16.3125 2 14 C1.34 14 0.68 14 0 14 C0 9.38 0 4.76 0 0 Z " fill="#7B411D" transform="translate(68,107)"/>
<path d="M0 0 C6.93 0.495 6.93 0.495 14 1 C13.01 1.495 13.01 1.495 12 2 C12.99 2.99 13.98 3.98 15 5 C14.34 6.65 13.68 8.3 13 10 C10.73044814 10.22185844 8.45926245 10.42705515 6.1875 10.625 C4.92292969 10.74101562 3.65835938 10.85703125 2.35546875 10.9765625 C-1 11 -1 11 -4 9 C-4 8.34 -4 7.68 -4 7 C-5.32 6.67 -6.64 6.34 -8 6 C-7.34 4.35 -6.68 2.7 -6 1 C-3.525 1.99 -3.525 1.99 -1 3 C-0.67 2.01 -0.34 1.02 0 0 Z " fill="#622A06" transform="translate(84,137)"/>
<path d="M0 0 C4.38494368 1.60399365 6.79223523 4.8930127 9.6875 8.375 C10.18572266 8.9525 10.68394531 9.53 11.19726562 10.125 C13.65045987 13.04087267 15.26987105 15.26485661 16 19 C14.68 18.67 13.36 18.34 12 18 C11.34 18.99 10.68 19.98 10 21 C9.4225 20.62875 8.845 20.2575 8.25 19.875 C7.13625 19.441875 7.13625 19.441875 6 19 C4.02 19.99 4.02 19.99 2 21 C-1.63 17.04 -5.26 13.08 -9 9 C-7.68 8.67 -6.36 8.34 -5 8 C-4.38125 8.804375 -3.7625 9.60875 -3.125 10.4375 C-1.25835959 13.03874519 -1.25835959 13.03874519 1 14 C1.33 13.01 1.66 12.02 2 11 C3.65 11 5.3 11 7 11 C6.20890398 9.72881136 5.41709922 8.45806377 4.625 7.1875 C4.18414062 6.47980469 3.74328125 5.77210937 3.2890625 5.04296875 C2.21811524 3.34567961 1.11323761 1.66985642 0 0 Z " fill="#D74051" transform="translate(147,51)"/>
<path d="M0 0 C6.9453326 1.95337479 13.07903686 8.11855529 17 14 C18.25 17.3125 18.25 17.3125 19 20 C17.125 19.75 17.125 19.75 15 19 C12.97244814 16.06004981 13 14.72295997 13 11 C11.05000871 11.19471111 11.05000871 11.19471111 9 12 C6.84057863 15.20995069 6.8794489 17.48381163 7.375 21.25 C7.48585938 22.14203125 7.59671875 23.0340625 7.7109375 23.953125 C7.80632812 24.62859375 7.90171875 25.3040625 8 26 C6 24 6 24 4.375 20.6875 C1.92225255 16.24478765 -1.66227439 14.37817811 -6 12 C-6.99 11.34 -7.98 10.68 -9 10 C-7.72125 10.04125 -6.4425 10.0825 -5.125 10.125 C-2.98128508 10.24212873 -2.98128508 10.24212873 -1 10 C-0.34 9.34 0.32 8.68 1 8 C3.125 8.375 3.125 8.375 5 9 C4.01 10.32 3.02 11.64 2 13 C3.65 13 5.3 13 7 13 C7 11.02 7 9.04 7 7 C5.35 6.67 3.7 6.34 2 6 C2 5.01 2 4.02 2 3 C1.01 3 0.02 3 -1 3 C-0.67 2.01 -0.34 1.02 0 0 Z " fill="#C05D46" transform="translate(109,78)"/>
<path d="M0 0 C1.32 0 2.64 0 4 0 C4.474375 1.11375 4.94875 2.2275 5.4375 3.375 C6.25306463 5.26710994 7.07856355 7.15712709 8 9 C8.99 9 9.98 9 11 9 C12.8598605 13.72345523 13.30664368 17.97759342 13.25 23 C13.25773437 23.68578125 13.26546875 24.3715625 13.2734375 25.078125 C13.2568452 29.42530835 12.59030115 32.96113993 11 37 C10.67 37 10.34 37 10 37 C9.95758277 34.66705225 9.95907063 32.33297433 10 30 C10.33 29.67 10.66 29.34 11 29 C11.07319621 26.30345146 11.09242537 23.63308542 11.0625 20.9375 C11.05798828 20.17888672 11.05347656 19.42027344 11.04882812 18.63867188 C11.0370068 16.75908129 11.01907078 14.87953101 11 13 C10.01 13 9.02 13 8 13 C7.34 13.66 6.68 14.32 6 15 C3.375 15.125 3.375 15.125 1 15 C0.87625 14.360625 0.7525 13.72125 0.625 13.0625 C0.41875 12.381875 0.2125 11.70125 0 11 C-0.66 10.67 -1.32 10.34 -2 10 C-3.16888206 6.76309585 -3.16500668 5.39080529 -1.8125 2.1875 C-1.214375 1.465625 -0.61625 0.74375 0 0 Z " fill="#AF4510" transform="translate(118,89)"/>
<path d="M0 0 C0.33 0 0.66 0 1 0 C1 1.65 1 3.3 1 5 C3.0745356 6.2236068 3.0745356 6.2236068 6 6 C5.67 4.68 5.34 3.36 5 2 C6.32 2.33 7.64 2.66 9 3 C9 3.66 9 4.32 9 5 C9.99 5.66 10.98 6.32 12 7 C11.67 7.66 11.34 8.32 11 9 C11.66 9 12.32 9 13 9 C13.33 8.34 13.66 7.68 14 7 C15.32 7.33 16.64 7.66 18 8 C17.01 11.63 16.02 15.26 15 19 C8.36089406 17.67217881 5.53978321 14.48044366 1.62890625 9.12109375 C-0.00841774 6.49797607 -1.07131181 4.69529018 -0.75 1.5625 C-0.5025 1.046875 -0.255 0.53125 0 0 Z " fill="#733207" transform="translate(60,124)"/>
<path d="M0 0 C2.67724855 2.67724855 3.42410074 5.73008299 4.5625 9.25 C4.78357422 9.90613281 5.00464844 10.56226562 5.23242188 11.23828125 C11.20398125 29.38749193 9.30358913 50.53060438 2 68 C1.67 68 1.34 68 1 68 C2.54545455 49.45454545 2.54545455 49.45454545 6 46 C6.09986975 43.15664952 6.13877881 40.34302837 6.125 37.5 C6.12886719 36.70207031 6.13273438 35.90414062 6.13671875 35.08203125 C6.5089961 31.2316068 6.5089961 31.2316068 5 28 C4.34080097 24.45539266 3.75469472 20.90676704 3.19335938 17.34570312 C2.5565391 13.50828354 1.85665793 10.45035573 0 7 C-0.0777346 4.66796188 -0.08967728 2.33160941 0 0 Z " fill="#BC7152" transform="translate(167,77)"/>
<path d="M0 0 C2.475 0.495 2.475 0.495 5 1 C4.14700232 2.14670384 3.29250133 3.29228934 2.4375 4.4375 C1.88964844 5.17484375 1.34179688 5.9121875 0.77734375 6.671875 C-0.36381174 8.16666329 -1.53632118 9.63830619 -2.74609375 11.078125 C-7.81127323 17.16987761 -10.92980227 23.72374384 -14 31 C-16.1385485 28.8614515 -16.42655063 27.86724686 -17 25 C-16.34 24.67 -15.68 24.34 -15 24 C-14.67 23.01 -14.34 22.02 -14 21 C-13.34 21 -12.68 21 -12 21 C-11.67 19.68 -11.34 18.36 -11 17 C-10.34 17 -9.68 17 -9 17 C-9.0721875 16.38511719 -9.144375 15.77023438 -9.21875 15.13671875 C-9.3115625 14.32847656 -9.404375 13.52023438 -9.5 12.6875 C-9.5928125 11.88699219 -9.685625 11.08648437 -9.78125 10.26171875 C-10 8 -10 8 -10 5 C-5.25 5.875 -5.25 5.875 -3 7 C-3 6.01 -3 5.02 -3 4 C-2.34 3.34 -1.68 2.68 -1 2 C-0.67 1.34 -0.34 0.68 0 0 Z " fill="#D23846" transform="translate(43,59)"/>
<path d="M0 0 C6.28661788 1.76811128 11.4453766 6.6680649 15 12 C14.01 12.33 13.02 12.66 12 13 C11.38125 12.505 10.7625 12.01 10.125 11.5 C8.05388789 9.68503789 8.05388789 9.68503789 5.25 10.3125 C4.13625 10.6528125 4.13625 10.6528125 3 11 C3 9.35 3 7.7 3 6 C2.34 5.67 1.68 5.34 1 5 C1.04125 6.11375 1.0825 7.2275 1.125 8.375 C1 12 1 12 -1 14 C-3.5625 11.875 -3.5625 11.875 -6 9 C-6.0625 5.8125 -6.0625 5.8125 -5 3 C-3 1.6875 -3 1.6875 -1 1 C-0.67 0.67 -0.34 0.34 0 0 Z " fill="#401C06" transform="translate(34,153)"/>
<path d="M0 0 C1.33659496 -0.01573992 2.67318376 -0.03201269 4.00976562 -0.04882812 C11.07849812 -0.0523678 16.5323019 0.27806543 22.9375 3.3125 C23.7728125 3.62574219 24.608125 3.93898437 25.46875 4.26171875 C28.203125 5.28710938 28.203125 5.28710938 30.9375 6.3125 C30.9375 6.9725 30.9375 7.6325 30.9375 8.3125 C31.5975 8.3125 32.2575 8.3125 32.9375 8.3125 C32.9375 8.9725 32.9375 9.6325 32.9375 10.3125 C34.5875 10.3125 36.2375 10.3125 37.9375 10.3125 C38.9275 12.2925 39.9175 14.2725 40.9375 16.3125 C37.99800369 14.91242388 35.34653478 13.28145368 32.625 11.5 C21.90578529 4.99190535 9.87428798 2.11568056 -2.5625 2.125 C-3.44583008 2.12435547 -4.32916016 2.12371094 -5.23925781 2.12304688 C-12.34339765 2.17994206 -19.09077245 2.88762138 -26.0625 4.3125 C-20.06397116 -1.68602884 -7.80148937 -0.01905591 0 0 Z " fill="#F3B4C8" transform="translate(97.0625,42.6875)"/>
<path d="M0 0 C2.0625 0.4375 2.0625 0.4375 4 1 C4.33 2.65 4.66 4.3 5 6 C3.68 6 2.36 6 1 6 C1 6.66 1 7.32 1 8 C-0.65 8 -2.3 8 -4 8 C-4.33 8.66 -4.66 9.32 -5 10 C-5.66 10 -6.32 10 -7 10 C-7 11.98 -7 13.96 -7 16 C-7.99 16 -8.98 16 -10 16 C-10 15.01 -10 14.02 -10 13 C-11.32 12.34 -12.64 11.68 -14 11 C-13.67 10.01 -13.34 9.02 -13 8 C-12.01 7.67 -11.02 7.34 -10 7 C-10 5.68 -10 4.36 -10 3 C-9.01 3 -8.02 3 -7 3 C-6.67 2.34 -6.34 1.68 -6 1 C-4.7934375 1.0309375 -4.7934375 1.0309375 -3.5625 1.0625 C-1.06645115 1.29633621 -1.06645115 1.29633621 0 0 Z " fill="#EB1B53" transform="translate(58,43)"/>
<path d="M0 0 C-0.33 1.32 -0.66 2.64 -1 4 C-1.99 4 -2.98 4 -4 4 C-3.87625 5.3303125 -3.87625 5.3303125 -3.75 6.6875 C-4.05814118 10.77037063 -5.39379465 11.93387606 -8 15 C-9.25556887 18.17921787 -9.25556887 18.17921787 -10 21 C-10.33 20.01 -10.66 19.02 -11 18 C-11.99 18.33 -12.98 18.66 -14 19 C-14 18.34 -14 17.68 -14 17 C-12.68 17 -11.36 17 -10 17 C-9.855625 15.88625 -9.71125 14.7725 -9.5625 13.625 C-9 10 -9 10 -8 8 C-10.31 8 -12.62 8 -15 8 C-14.67 6.68 -14.34 5.36 -14 4 C-13.34 4 -12.68 4 -12 4 C-12 3.01 -12 2.02 -12 1 C-7.53763531 -0.80619523 -4.68965706 -1.11658501 0 0 Z " fill="#BC3C1C" transform="translate(80,86)"/>
<path d="M0 0 C0.66 0.99 1.32 1.98 2 3 C1.67 3.66 1.34 4.32 1 5 C2.65 5.33 4.3 5.66 6 6 C6 7.98 6 9.96 6 12 C5.34 12 4.68 12 4 12 C3.67 12.99 3.34 13.98 3 15 C1.68 15 0.36 15 -1 15 C-1.66 13.68 -2.32 12.36 -3 11 C-4.32 11 -5.64 11 -7 11 C-6.34 9.35 -5.68 7.7 -5 6 C-4.34 6 -3.68 6 -3 6 C-2.01 4.02 -1.02 2.04 0 0 Z " fill="#5C2D10" transform="translate(158,140)"/>
<path d="M0 0 C1.875 0.3125 1.875 0.3125 4 1 C4.66 1.99 5.32 2.98 6 4 C5.01 4.495 5.01 4.495 4 5 C3.01 4.67 2.02 4.34 1 4 C1 5.32 1 6.64 1 8 C1.99 8.33 2.98 8.66 4 9 C1.38058783 10.74627478 -0.03824877 11.38722388 -3 12 C-6 8.25 -6 8.25 -6 6 C-7.65 6 -9.3 6 -11 6 C-11 5.67 -11 5.34 -11 5 C-9.35 5 -7.7 5 -6 5 C-5.67 3.68 -5.34 2.36 -5 1 C-4.34 1 -3.68 1 -3 1 C-3 1.66 -3 2.32 -3 3 C-2.01 3 -1.02 3 0 3 C0 2.01 0 1.02 0 0 Z " fill="#E12D58" transform="translate(141,47)"/>
<path d="M0 0 C2.0625 0.4375 2.0625 0.4375 4 1 C3.01 2.32 2.02 3.64 1 5 C2.98 4.67 4.96 4.34 7 4 C6.814375 5.0725 6.62875 6.145 6.4375 7.25 C6.05523298 10.52657449 6.13794001 11.98279004 7 15 C6.67 15.99 6.34 16.98 6 18 C5.608125 17.113125 5.21625 16.22625 4.8125 15.3125 C1.25199366 8.80536773 -3.43175352 5.91740973 -10 3 C-7.77316603 2.43023438 -5.57406672 1.9207566 -3.3125 1.5 C-1.04844958 1.22901669 -1.04844958 1.22901669 0 0 Z " fill="#C76D53" transform="translate(110,86)"/>
<path d="M0 0 C0.66 0.33 1.32 0.66 2 1 C3.66194453 1.35613097 5.328451 1.69208308 7 2 C7 3.32 7 4.64 7 6 C6.01 6 5.02 6 4 6 C4 6.99 4 7.98 4 9 C1.03 8.505 1.03 8.505 -2 8 C-2.66 9.32 -3.32 10.64 -4 12 C-5.32 11.34 -6.64 10.68 -8 10 C-6.625 7.5 -6.625 7.5 -5 5 C-4.34 5 -3.68 5 -3 5 C-2.690625 4.360625 -2.38125 3.72125 -2.0625 3.0625 C-1 1 -1 1 0 0 Z " fill="#DB2640" transform="translate(36,57)"/>
<path d="M0 0 C-3.82635635 1.27545212 -5.77738663 0.49743678 -9.6875 -0.4375 C-21.57096913 -3.03578207 -34.18321375 -3.17465899 -46 0 C-46.99 0.66 -47.98 1.32 -49 2 C-51.26171875 2.4140625 -51.26171875 2.4140625 -53.6875 2.625 C-54.49574219 2.69976562 -55.30398437 2.77453125 -56.13671875 2.8515625 C-57.05904297 2.92503906 -57.05904297 2.92503906 -58 3 C-55.44619108 0.44619108 -53.26208395 -0.01849473 -49.8125 -1.0625 C-48.15154297 -1.57490234 -48.15154297 -1.57490234 -46.45703125 -2.09765625 C-31.00204484 -6.13166965 -15.07305661 -4.71559313 0 0 Z " fill="#FEE1F2" transform="translate(120,34)"/>
<path d="M0 0 C1.01739372 3.15890077 0.91377147 5.06746875 0.0625 8.25 C-2.18225424 18.50306665 -1.39127782 29.66479333 0 40 C-0.66 39.67 -1.32 39.34 -2 39 C-2 37.02 -2 35.04 -2 33 C-2.66 33 -3.32 33 -4 33 C-4.13031433 26.29605159 -3.93582571 19.62973528 -3.5625 12.9375 C-3.52326416 12.18734619 -3.48402832 11.43719238 -3.44360352 10.66430664 C-3.12083489 5.24166977 -3.12083489 5.24166977 -2 3 C-1.34 3 -0.68 3 0 3 C0 2.01 0 1.02 0 0 Z " fill="#D8A98F" transform="translate(27,90)"/>
<path d="M0 0 C0.99 0.33 1.98 0.66 3 1 C3 2.32 3 3.64 3 5 C3.66 5 4.32 5 5 5 C5.33 6.98 5.66 8.96 6 11 C6.66 11 7.32 11 8 11 C8 19.91 8 28.82 8 38 C7.67 38 7.34 38 7 38 C6.96036133 37.43192627 6.92072266 36.86385254 6.87988281 36.27856445 C6.05143513 24.95835329 4.87464303 14.71816839 1 4 C0.64739509 2.67163308 0.30581535 1.33991263 0 0 Z " fill="#D79984" transform="translate(155,81)"/>
<path d="M0 0 C1.32 0.66 2.64 1.32 4 2 C3.34 2 2.68 2 2 2 C1.95101562 2.61488281 1.90203125 3.22976562 1.8515625 3.86328125 C1.77679688 4.67152344 1.70203125 5.47976562 1.625 6.3125 C1.55539063 7.11300781 1.48578125 7.91351563 1.4140625 8.73828125 C1 11 1 11 -1 14 C-3.5625 11.875 -3.5625 11.875 -6 9 C-6.0625 5.8125 -6.0625 5.8125 -5 3 C-3 1.6875 -3 1.6875 -1 1 C-0.67 0.67 -0.34 0.34 0 0 Z " fill="#472108" transform="translate(34,153)"/>
<path d="M0 0 C0.90755155 2.9848362 0.99817633 5.17337206 0.5625 8.25 C-0.28459789 15.48291278 -0.08117517 22.73031234 0 30 C-4.21313061 23.68030409 -3.48339602 16.37178926 -3 9 C-2.26010655 5.78662555 -1.26585363 3.05914628 0 0 Z " fill="#BC8665" transform="translate(59,96)"/>
<path d="M0 0 C1.32 0 2.64 0 4 0 C5.80230168 3.82989106 6.19622241 6.78121808 6 11 C5.4225 10.67 4.845 10.34 4.25 10 C1.80116138 8.72924102 1.80116138 8.72924102 -2 9 C-2.6875 7.3125 -2.6875 7.3125 -3 5 C-1.8125 2.25 -1.8125 2.25 0 0 Z " fill="#BA3E16" transform="translate(118,89)"/>
<path d="M0 0 C1.21236328 0.02707031 1.21236328 0.02707031 2.44921875 0.0546875 C3.37154297 0.08949219 3.37154297 0.08949219 4.3125 0.125 C1.75490388 1.83006408 -0.68494 3.15791329 -3.4375 4.5 C-7.61814729 6.56580372 -11.6666081 8.76491128 -15.6875 11.125 C-15.91482116 8.32137237 -16.02831872 6.66313483 -14.5 4.25 C-12.6875 3.125 -12.6875 3.125 -10 3.4375 C-9.236875 3.664375 -8.47375 3.89125 -7.6875 4.125 C-7.6875 3.465 -7.6875 2.805 -7.6875 2.125 C-4.48369983 -0.01086678 -3.66810033 -0.10632175 0 0 Z " fill="#E4587D" transform="translate(66.6875,46.875)"/>
<path d="M0 0 C0.33 0 0.66 0 1 0 C1.52059103 15.98614914 1.24837666 30.05455854 -5 45 C-5.33 45 -5.66 45 -6 45 C-4.45454545 26.45454545 -4.45454545 26.45454545 -1 23 C-0.84259395 21.29436222 -0.74906608 19.58272756 -0.68359375 17.87109375 C-0.64169922 16.83662109 -0.59980469 15.80214844 -0.55664062 14.73632812 C-0.51732422 13.64771484 -0.47800781 12.55910156 -0.4375 11.4375 C-0.37272461 9.7987793 -0.37272461 9.7987793 -0.30664062 8.12695312 C-0.20017932 5.41810436 -0.09816484 2.70916008 0 0 Z " fill="#C09E8A" transform="translate(174,100)"/>
<path d="M0 0 C1.08203125 1.79296875 1.08203125 1.79296875 2 4 C0.6875 7.3125 0.6875 7.3125 -0.17578125 8.92578125 C-3.02335844 16.09195891 -2.11396947 24.38732523 -2.0625 31.9375 C-2.05798828 33.19369141 -2.05347656 34.44988281 -2.04882812 35.74414062 C-2.03709681 38.82947663 -2.020681 41.91471316 -2 45 C-2.33 45 -2.66 45 -3 45 C-6.2806483 30.28083563 -4.67996882 14.20704819 0 0 Z " fill="#DCB7A0" transform="translate(16,84)"/>
<path d="M0 0 C-0.66 2.97 -1.32 5.94 -2 9 C-3.98 9 -5.96 9 -8 9 C-7.67 7.35 -7.34 5.7 -7 4 C-6.67 4.66 -6.34 5.32 -6 6 C-5.34 6 -4.68 6 -4 6 C-4 5.01 -4 4.02 -4 3 C-6.94091587 3.18415432 -6.94091587 3.18415432 -10 4 C-11.43637698 5.95163118 -11.43637698 5.95163118 -12 8 C-13 6 -13 6 -12.5 3.5 C-11 1 -11 1 -7.625 -0.375 C-4 -1 -4 -1 0 0 Z " fill="#B14314" transform="translate(72,94)"/>
<path d="M0 0 C0 0.33 0 0.66 0 1 C-1.99954746 1.04254356 -4.00041636 1.04080783 -6 1 C-6.33 0.67 -6.66 0.34 -7 0 C-9.76021008 -0.10069436 -12.49000634 -0.13868592 -15.25 -0.125 C-16.01441406 -0.12886719 -16.77882813 -0.13273437 -17.56640625 -0.13671875 C-21.51019849 -0.12990736 -25.14975199 0.0297375 -29 1 C-29.33 1.99 -29.66 2.98 -30 4 C-31.98 4 -33.96 4 -36 4 C-27.39212296 -6.14915232 -11.0140802 -4.01380797 0 0 Z " fill="#E1B6B3" transform="translate(109,77)"/>
<path d="M0 0 C0.33 0 0.66 0 1 0 C1.10957031 0.86882812 1.21914062 1.73765625 1.33203125 2.6328125 C2.73209417 13.1615463 2.73209417 13.1615463 8.6875 21.6875 C11 24 11 24 11 27 C10.67 26.34 10.34 25.68 10 25 C7.69 25.33 5.38 25.66 3 26 C3.20625 25.401875 3.4125 24.80375 3.625 24.1875 C4.30671915 21.71549154 4.30671915 21.71549154 2 19 C1.875 16.3125 1.875 16.3125 2 14 C1.34 14 0.68 14 0 14 C0 9.38 0 4.76 0 0 Z " fill="#B38A6B" transform="translate(68,107)"/>
<path d="M0 0 C7.92 0 15.84 0 24 0 C24.33 0.66 24.66 1.32 25 2 C24.0255896 2.03758423 24.0255896 2.03758423 23.03149414 2.07592773 C20.04168912 2.19313851 17.05210465 2.31528919 14.0625 2.4375 C13.04091797 2.47681641 12.01933594 2.51613281 10.96679688 2.55664062 C4.93409791 2.80720001 -1.007705 3.25643055 -7 4 C-4 2 -4 2 0 2 C0 1.34 0 0.68 0 0 Z " fill="#D73469" transform="translate(80,41)"/>
<path d="M0 0 C1.65 0.33 3.3 0.66 5 1 C4.01 4.63 3.02 8.26 2 12 C0.68 11.34 -0.64 10.68 -2 10 C-2 9.01 -2 8.02 -2 7 C-2.66 7 -3.32 7 -4 7 C-4.33 5.68 -4.66 4.36 -5 3 C-3.35 2.67 -1.7 2.34 0 2 C0 1.34 0 0.68 0 0 Z " fill="#6A2F0B" transform="translate(73,131)"/>
<path d="M0 0 C0 1.98 0 3.96 0 6 C1.98 5.67 3.96 5.34 6 5 C5.67 6.65 5.34 8.3 5 10 C2.66666667 10 0.33333333 10 -2 10 C-2.33 10.66 -2.66 11.32 -3 12 C-3.66 12 -4.32 12 -5 12 C-4.91253716 10.56138706 -4.80434652 9.12402492 -4.6875 7.6875 C-4.62949219 6.88699219 -4.57148437 6.08648437 -4.51171875 5.26171875 C-3.99058337 2.95837994 -2.79582327 0 0 0 Z " fill="#8C3B07" transform="translate(122,115)"/>
<path d="M0 0 C0.66 0 1.32 0 2 0 C1.67 1.98 1.34 3.96 1 6 C2.32 5.34 3.64 4.68 5 4 C5 4.99 5 5.98 5 7 C6.32 7.33 7.64 7.66 9 8 C9 8.66 9 9.32 9 10 C1.61195219 10.36334661 1.61195219 10.36334661 -1 8.8125 C-2.34419875 6.37613976 -2.35131571 4.74026253 -2 2 C-1.34 1.34 -0.68 0.68 0 0 Z " fill="#C5342B" transform="translate(125,73)"/>
<path d="M0 0 C0.33 0 0.66 0 1 0 C2.17708468 4.56120312 2.51750695 9.31612353 2 14 C1.01 15.485 1.01 15.485 0 17 C-0.45601261 19.50896686 -0.45601261 19.50896686 -0.625 22.1875 C-0.69976562 23.08855469 -0.77453125 23.98960937 -0.8515625 24.91796875 C-0.90054688 25.60503906 -0.94953125 26.29210937 -1 27 C-1.99 27.33 -2.98 27.66 -4 28 C-3.49178412 23.25665175 -2.71381409 18.91348539 -1.4765625 14.296875 C-0.50151206 9.59745154 -0.30286798 4.78212602 0 0 Z " fill="#A06B49" transform="translate(163,107)"/>
<path d="M0 0 C0.66 0.33 1.32 0.66 2 1 C0.515 3.475 0.515 3.475 -1 6 C-1.99 5.67 -2.98 5.34 -4 5 C-3.67 6.65 -3.34 8.3 -3 10 C-4.65 9.67 -6.3 9.34 -8 9 C-8 9.66 -8 10.32 -8 11 C-8.66 10.67 -9.32 10.34 -10 10 C-10 9.01 -10 8.02 -10 7 C-8.3203125 5.4296875 -8.3203125 5.4296875 -6.125 3.875 C-5.40570313 3.35679688 -4.68640625 2.83859375 -3.9453125 2.3046875 C-2 1 -2 1 0 0 Z " fill="#E54F7B" transform="translate(52,41)"/>
<path d="M0 0 C4.18181818 6.27272727 4.18181818 6.27272727 3.75 10.375 C3.5025 11.24125 3.255 12.1075 3 13 C2.67 14.19625 2.34 15.3925 2 16.625 C1.36730082 18.76035973 0.7042776 20.88716719 0 23 C-2.0625 23.6875 -2.0625 23.6875 -4 24 C-3.71125 23.29875 -3.4225 22.5975 -3.125 21.875 C-0.98167584 16.39761603 0.24623734 12.06562976 0.125 6.125 C0.09792969 4.39636719 0.09792969 4.39636719 0.0703125 2.6328125 C0.04710938 1.76398438 0.02390625 0.89515625 0 0 Z " fill="#C08968" transform="translate(117,104)"/>
<path d="M0 0 C0 2.85602507 -0.3622683 4.48384316 -1.3125 7.125 C-1.55613281 7.82882813 -1.79976562 8.53265625 -2.05078125 9.2578125 C-3 11 -3 11 -6 12 C-6 14.31 -6 16.62 -6 19 C-7.32 19.33 -8.64 19.66 -10 20 C-8.07969811 13.0262721 -5.22193403 5.22193403 0 0 Z " fill="#DA8787" transform="translate(27,64)"/>
<path d="M0 0 C2.0625 0.4375 2.0625 0.4375 4 1 C4.33 2.65 4.66 4.3 5 6 C3.68 6 2.36 6 1 6 C1 6.66 1 7.32 1 8 C-0.32 7.67 -1.64 7.34 -3 7 C-3 6.01 -3 5.02 -3 4 C-3.99 3.67 -4.98 3.34 -6 3 C-6 2.34 -6 1.68 -6 1 C-4.7934375 1.0309375 -4.7934375 1.0309375 -3.5625 1.0625 C-1.06645115 1.29633621 -1.06645115 1.29633621 0 0 Z " fill="#EB1A55" transform="translate(58,43)"/>
<path d="M0 0 C0.99 0.33 1.98 0.66 3 1 C3.33 1.99 3.66 2.98 4 4 C3.67 4.66 3.34 5.32 3 6 C3.99 6.33 4.98 6.66 6 7 C6 9.97 6 12.94 6 16 C6.66 16.33 7.32 16.66 8 17 C7.34 17.66 6.68 18.32 6 19 C5.18025737 16.96123051 4.3695193 14.91883925 3.5625 12.875 C3.11003906 11.73804688 2.65757813 10.60109375 2.19140625 9.4296875 C1.08960073 6.25793259 0.43904226 3.32057252 0 0 Z " fill="#875F46" transform="translate(14,130)"/>
<path d="M0 0 C1.27133789 0.00966797 1.27133789 0.00966797 2.56835938 0.01953125 C3.8899707 0.04466797 3.8899707 0.04466797 5.23828125 0.0703125 C6.57729492 0.08384766 6.57729492 0.08384766 7.94335938 0.09765625 C10.14610439 0.12121502 12.34830713 0.15410921 14.55078125 0.1953125 C8.00713191 4.55774539 -0.01587785 3.68198068 -7.44921875 2.1953125 C-4.2960709 0.09321393 -3.58818794 -0.0481636 0 0 Z " fill="#937463" transform="translate(91.44921875,146.8046875)"/>
<path d="M0 0 C-0.50840885 4.82630375 -1.86958544 7.8601092 -4.5625 11.875 C-5.52349609 13.32519531 -5.52349609 13.32519531 -6.50390625 14.8046875 C-6.99761719 15.52914062 -7.49132812 16.25359375 -8 17 C-8.33 16.34 -8.66 15.68 -9 15 C-9.66 14.67 -10.32 14.34 -11 14 C-10.01 13.67 -9.02 13.34 -8 13 C-6.79117904 10.99983534 -6.79117904 10.99983534 -6 9 C-5.34 9 -4.68 9 -4 9 C-4 6.36 -4 3.72 -4 1 C-2 0 -2 0 0 0 Z " fill="#7D5943" transform="translate(168,143)"/>
<path d="M0 0 C1.2109375 1.546875 1.2109375 1.546875 2 4 C0.99212459 6.60515164 -0.03627093 8.82847536 -1.375 11.25 C-1.71789063 11.8996875 -2.06078125 12.549375 -2.4140625 13.21875 C-3.26183672 14.82010131 -4.12908679 16.41111444 -5 18 C-7.1385485 15.8614515 -7.42655063 14.86724686 -8 12 C-7.34 11.67 -6.68 11.34 -6 11 C-5.67 10.01 -5.34 9.02 -5 8 C-4.34 8 -3.68 8 -3 8 C-2.67 6.68 -2.34 5.36 -2 4 C-1.34 4 -0.68 4 0 4 C0 2.68 0 1.36 0 0 Z " fill="#D37B73" transform="translate(34,72)"/>
<path d="M0 0 C-1.61982544 3.23965088 -3.64032417 3.80011577 -7 5 C-12.16083042 4.56685888 -17.15177773 2.74038748 -22 1 C-19 0 -19 0 -15.375 0.5625 C-11.2175977 1.18611035 -7.90066024 0.49495756 -3.8828125 -0.625 C-2 -1 -2 -1 0 0 Z " fill="#AA8971" transform="translate(106,135)"/>
<path d="M0 0 C0 0.33 0 0.66 0 1 C-1.27875 1.12375 -2.5575 1.2475 -3.875 1.375 C-7.34790936 1.69042399 -7.34790936 1.69042399 -10 4 C-10.46006346 6.20250992 -10.46006346 6.20250992 -10.625 8.625 C-10.69976562 9.44226563 -10.77453125 10.25953125 -10.8515625 11.1015625 C-10.90054688 11.72804688 -10.94953125 12.35453125 -11 13 C-10.34 13.33 -9.68 13.66 -9 14 C-9.99 14 -10.98 14 -12 14 C-13.65181045 10.34862953 -14.22751994 8.68255983 -12.9375 4.8125 C-9.25342337 -0.53535318 -6.26543643 -1.60278606 0 0 Z " fill="#E6ADAD" transform="translate(134,67)"/>
<path d="M0 0 C1.32 0 2.64 0 4 0 C3.773125 0.53625 3.54625 1.0725 3.3125 1.625 C2.86041855 5.06081901 4.32821985 7.05766694 6 10 C0.43956044 8.54945055 0.43956044 8.54945055 -1.5 6.125 C-2 4 -2 4 -1.125 1.75 C-0.75375 1.1725 -0.3825 0.595 0 0 Z " fill="#220E03" transform="translate(130,171)"/>
<path d="M0 0 C0.33 0 0.66 0 1 0 C1 1.65 1 3.3 1 5 C3.0745356 6.2236068 3.0745356 6.2236068 6 6 C5.67 4.68 5.34 3.36 5 2 C6.32 2.33 7.64 2.66 9 3 C7.92598892 5.91517292 7.22189824 7.77810176 5 10 C5.66 10.66 6.32 11.32 7 12 C6.01 12 5.02 12 4 12 C2.578125 10.390625 2.578125 10.390625 1.25 8.25 C0.80140625 7.55390625 0.3528125 6.8578125 -0.109375 6.140625 C-1.16007332 3.61526236 -0.93134261 2.52143975 0 0 Z " fill="#975D3A" transform="translate(60,124)"/>
<path d="M0 0 C3.17989806 1.53794135 6.21481974 3.256479 9.25 5.0625 C10.14203125 5.58972656 11.0340625 6.11695313 11.953125 6.66015625 C12.96632813 7.32337891 12.96632813 7.32337891 14 8 C14 8.33 14 8.66 14 9 C12.741875 9.04125 11.48375 9.0825 10.1875 9.125 C9.47980469 9.14820313 8.77210937 9.17140625 8.04296875 9.1953125 C6 9 6 9 3 7 C3 6.01 3 5.02 3 4 C2.01 3.67 1.02 3.34 0 3 C0 2.01 0 1.02 0 0 Z " fill="#6B5C53" transform="translate(49,165)"/>
<path d="M0 0 C0 1.98 0 3.96 0 6 C-1.875 7.0625 -1.875 7.0625 -4 8 C-4.66 7.67 -5.32 7.34 -6 7 C-6 7.66 -6 8.32 -6 9 C-6.66 8.67 -7.32 8.34 -8 8 C-8 7.01 -8 6.02 -8 5 C-6.50390625 3.61328125 -6.50390625 3.61328125 -4.5625 2.3125 C-3.92441406 1.87550781 -3.28632812 1.43851563 -2.62890625 0.98828125 C-1 0 -1 0 0 0 Z " fill="#773307" transform="translate(115,127)"/>
<path d="M0 0 C0.33 0 0.66 0 1 0 C1 2.31 1 4.62 1 7 C1.66 7 2.32 7 3 7 C3.66 9.97 4.32 12.94 5 16 C3.68 15.67 2.36 15.34 1 15 C1 14.34 1 13.68 1 13 C0.34 12.34 -0.32 11.68 -1 11 C-2.16885197 6.6168051 -2.02892674 4.05785349 0 0 Z " fill="#863907" transform="translate(67,114)"/>
<path d="M0 0 C2.17581687 2.84881728 4.20937999 5.76084088 6.1875 8.75 C6.71730469 9.54921875 7.24710938 10.3484375 7.79296875 11.171875 C8.19128906 11.77515625 8.58960938 12.3784375 9 13 C8.67 13.66 8.34 14.32 8 15 C3.88905053 12.09815331 0.78487231 9.70936009 -0.5 4.6875 C-0.665 3.470625 -0.83 2.25375 -1 1 C-0.67 0.67 -0.34 0.34 0 0 Z " fill="#866955" transform="translate(31,141)"/>
<path d="M0 0 C0.33 1.32 0.66 2.64 1 4 C1.66 4 2.32 4 3 4 C3 4.66 3 5.32 3 6 C3.66 6.33 4.32 6.66 5 7 C5 7.99 5 8.98 5 10 C5.66 10.33 6.32 10.66 7 11 C6.01 11.66 5.02 12.32 4 13 C1.0220235 10.15738607 -0.93062914 8.15618101 -1.1875 3.875 C-1 1 -1 1 0 0 Z " fill="#7F380C" transform="translate(60,119)"/>
<path d="M0 0 C1.43739513 -0.02712066 2.87493863 -0.04645067 4.3125 -0.0625 C5.51326172 -0.07990234 5.51326172 -0.07990234 6.73828125 -0.09765625 C9 0 9 0 12 1 C12 1.66 12 2.32 12 3 C4.08 3.495 4.08 3.495 -4 4 C-3.01 3.67 -2.02 3.34 -1 3 C-0.67 2.01 -0.34 1.02 0 0 Z " fill="#D08A7F" transform="translate(88,85)"/>
<path d="M0 0 C1.12517887 3.3755366 0.58601277 4.56164015 -0.4609375 7.828125 C-1.33586764 11.35320583 -1.45416312 14.9295199 -1.65625 18.546875 C-2 21 -2 21 -4 24 C-4.15809808 15.26947293 -3.74640807 7.98147806 0 0 Z " fill="#A7461E" transform="translate(17,88)"/>
<path d="M0 0 C3.08292137 4.62438205 3.18261764 8.4272521 3.1875 13.8125 C3.19974609 14.51181641 3.21199219 15.21113281 3.22460938 15.93164062 C3.23699659 20.34561655 2.62789183 23.90131584 1 28 C0.67 28 0.34 28 0 28 C-0.04241723 25.66705225 -0.04092937 23.33297433 0 21 C0.33 20.67 0.66 20.34 1 20 C1.33093645 13.28393666 1.23096866 6.61645655 0 0 Z " fill="#D7B8A3" transform="translate(128,98)"/>
<path d="M0 0 C0.66 0.66 1.32 1.32 2 2 C0.02 2.99 0.02 2.99 -2 4 C-1.34 2.68 -0.68 1.36 0 0 Z M-6 1 C-4.68 1.99 -3.36 2.98 -2 4 C-2.33 5.98 -2.66 7.96 -3 10 C-3.33 9.34 -3.66 8.68 -4 8 C-4.99 7.67 -5.98 7.34 -7 7 C-7 6.34 -7 5.68 -7 5 C-7.66 4.34 -8.32 3.68 -9 3 C-8.01 2.34 -7.02 1.68 -6 1 Z " fill="#CC2F33" transform="translate(159,68)"/>
<path d="M0 0 C0.66 0.66 1.32 1.32 2 2 C1.875 4.5 1.875 4.5 1 7 C-0.8125 8.375 -0.8125 8.375 -3 9 C-4.32 8.67 -5.64 8.34 -7 8 C-4.69 5.36 -2.38 2.72 0 0 Z " fill="#704F3D" transform="translate(150,151)"/>
<path d="M0 0 C0.66 0.33 1.32 0.66 2 1 C1.236875 1.70125 0.47375 2.4025 -0.3125 3.125 C-3.12165601 5.83542936 -3.12165601 5.83542936 -4.5 9.1875 C-6 12 -6 12 -8.6875 13.375 C-9.450625 13.58125 -10.21375 13.7875 -11 14 C-9.42219077 10.28954753 -7.09296752 7.70093616 -4.375 4.75 C-3.55773438 3.85796875 -2.74046875 2.9659375 -1.8984375 2.046875 C-1.27195312 1.37140625 -0.64546875 0.6959375 0 0 Z " fill="#EA9CAC" transform="translate(39,50)"/>
<path d="M0 0 C0 0.33 0 0.66 0 1 C-0.83144531 1.12117188 -1.66289063 1.24234375 -2.51953125 1.3671875 C-3.60621094 1.53476562 -4.69289063 1.70234375 -5.8125 1.875 C-6.89144531 2.03742187 -7.97039062 2.19984375 -9.08203125 2.3671875 C-12.17321793 2.85132338 -12.17321793 2.85132338 -15 5 C-17.26171875 5.4140625 -17.26171875 5.4140625 -19.6875 5.625 C-20.49574219 5.69976562 -21.30398437 5.77453125 -22.13671875 5.8515625 C-23.05904297 5.92503906 -23.05904297 5.92503906 -24 6 C-18.22808611 0.22808611 -7.76924476 -0.52672846 0 0 Z " fill="#F5AFCD" transform="translate(86,31)"/>
<path d="M0 0 C-2.80804268 2.96404505 -5.18315774 5.44499019 -9 7 C-9.33 6.01 -9.66 5.02 -10 4 C-9.01 3.67 -8.02 3.34 -7 3 C-7 2.34 -7 1.68 -7 1 C-3.375 -1.125 -3.375 -1.125 0 0 Z " fill="#594A40" transform="translate(151,170)"/>
<path d="M0 0 C4.43458973 1.3937282 6.87378374 3.60582235 10 7 C7.16032769 7 4.76264289 6.59732819 2 6 C2 5.01 2 4.02 2 3 C1.01 3 0.02 3 -1 3 C-0.67 2.01 -0.34 1.02 0 0 Z " fill="#CE786C" transform="translate(109,78)"/>
<path d="M0 0 C5.61589298 -0.29047722 9.09825932 -0.10842092 14 3 C14.33 3.66 14.66 4.32 15 5 C10 4 5 3 0 2 C0 1.34 0 0.68 0 0 Z " fill="#EA8BAA" transform="translate(104,43)"/>
<path d="M0 0 C4.95 0.99 4.95 0.99 10 2 C8.515 4.475 8.515 4.475 7 7 C5.82780457 6.21654285 4.66236332 5.42297164 3.5 4.625 C2.8503125 4.18414062 2.200625 3.74328125 1.53125 3.2890625 C1.0259375 2.86367187 0.520625 2.43828125 0 2 C0 1.34 0 0.68 0 0 Z " fill="#513F34" transform="translate(34,167)"/>
<path d="M0 0 C0.556875 0.309375 1.11375 0.61875 1.6875 0.9375 C4.12540433 2.05761821 6.36224186 2.56037364 9 3 C8.67 3.99 8.34 4.98 8 6 C5.36 5.67 2.72 5.34 0 5 C-0.5625 3.0625 -0.5625 3.0625 -1 1 C-0.67 0.67 -0.34 0.34 0 0 Z " fill="#371604" transform="translate(40,162)"/>
<path d="M0 0 C0.93065133 2.60582371 1.14917407 3.64198224 0.0625 6.25 C-0.4634375 7.11625 -0.4634375 7.11625 -1 8 C-0.34 8.33 0.32 8.66 1 9 C-1.31 9.33 -3.62 9.66 -6 10 C-4.6302836 6.00499382 -2.74277578 3.19990508 0 0 Z " fill="#C7755F" transform="translate(66,86)"/>
<path d="M0 0 C0.33 0.66 0.66 1.32 1 2 C2.32 1.67 3.64 1.34 5 1 C3.63016497 4.16115776 3.0109362 4.9927092 0 7 C-3 7.3125 -3 7.3125 -6 7 C-6.99 6.01 -7.98 5.02 -9 4 C-5.7 4.33 -2.4 4.66 1 5 C0.34 3.68 -0.32 2.36 -1 1 C-0.67 0.67 -0.34 0.34 0 0 Z " fill="#DC928F" transform="translate(133,78)"/>
<path d="M0 0 C0 3.68553144 -0.8522582 5.03759752 -3 8 C-5.4375 9.875 -5.4375 9.875 -8 11 C-10.16015625 10.5703125 -10.16015625 10.5703125 -12 10 C-11.38511719 9.52949219 -10.77023438 9.05898437 -10.13671875 8.57421875 C-9.32847656 7.95160156 -8.52023438 7.32898438 -7.6875 6.6875 C-6.88699219 6.07261719 -6.08648437 5.45773438 -5.26171875 4.82421875 C-3.37298626 3.30083693 -1.66922364 1.75565593 0 0 Z " fill="#7A695F" transform="translate(142,160)"/>
<path d="M0 0 C1.65 0 3.3 0 5 0 C6.10844919 3.32534757 5.84454356 5.62182575 5 9 C4.34 8.67 3.68 8.34 3 8 C3 7.01 3 6.02 3 5 C1.68 4.34 0.36 3.68 -1 3 C-0.67 2.01 -0.34 1.02 0 0 Z " fill="#E93962" transform="translate(45,51)"/>
<path d="M0 0 C3.66786393 1.50349377 5.68910393 3.63728792 8.25 6.625 C8.95640625 7.44226562 9.6628125 8.25953125 10.390625 9.1015625 C10.92171875 9.72804688 11.4528125 10.35453125 12 11 C11.67 11.66 11.34 12.32 11 13 C6.42635509 10.77498356 5.05476409 8.57652001 3 4 C2.03465478 2.64136599 1.04722851 1.29656863 0 0 Z " fill="#E996A6" transform="translate(147,51)"/>
<path d="M0 0 C0.433125 0.45375 0.86625 0.9075 1.3125 1.375 C3.10798342 3.20024334 3.10798342 3.20024334 6 5 C5.67 5.66 5.34 6.32 5 7 C5.99 7.33 6.98 7.66 8 8 C7.01 8.495 7.01 8.495 6 9 C4.0546875 8.22265625 4.0546875 8.22265625 1.875 7.0625 C1.15054688 6.68222656 0.42609375 6.30195313 -0.3203125 5.91015625 C-0.87460938 5.60980469 -1.42890625 5.30945313 -2 5 C-1.34 3.35 -0.68 1.7 0 0 Z " fill="#885F46" transform="translate(75,139)"/>
<path d="M0 0 C1.21236328 0.02707031 1.21236328 0.02707031 2.44921875 0.0546875 C3.37154297 0.08949219 3.37154297 0.08949219 4.3125 0.125 C1.97710191 1.68193206 -0.26718756 3.02700646 -2.75 4.3125 C-3.44222656 4.67730469 -4.13445313 5.04210938 -4.84765625 5.41796875 C-5.45480469 5.65128906 -6.06195313 5.88460937 -6.6875 6.125 C-7.3475 5.795 -8.0075 5.465 -8.6875 5.125 C-7.09467308 0.34651924 -4.63157396 -0.13424852 0 0 Z " fill="#E67C9D" transform="translate(66.6875,46.875)"/>
<path d="M0 0 C0 3 0 3 -1.375 4.8125 C-3.30328887 7.40827347 -4.08903385 9.91672995 -5 13 C-5.33 12.01 -5.66 11.02 -6 10 C-6.99 10.33 -7.98 10.66 -9 11 C-9 10.34 -9 9.68 -9 9 C-7.68 9 -6.36 9 -5 9 C-4.9175 7.88625 -4.835 6.7725 -4.75 5.625 C-4 2 -4 2 -1.9375 0.5625 C-1.298125 0.376875 -0.65875 0.19125 0 0 Z " fill="#CE9478" transform="translate(75,94)"/>
<path d="M0 0 C0.33 0 0.66 0 1 0 C1.33 2.64 1.66 5.28 2 8 C1.67 7.34 1.34 6.68 1 6 C0.01 6.33 -0.98 6.66 -2 7 C-2.66 6.67 -3.32 6.34 -4 6 C-4 5.34 -4 4.68 -4 4 C-4.66 4 -5.32 4 -6 4 C-6.33 4.66 -6.66 5.32 -7 6 C-7 5.01 -7 4.02 -7 3 C-5.5459375 2.5359375 -5.5459375 2.5359375 -4.0625 2.0625 C-1.15934208 1.30476658 -1.15934208 1.30476658 0 0 Z " fill="#B64112" transform="translate(170,93)"/>
<path d="M0 0 C0.66 0 1.32 0 2 0 C0.5741914 3.45195767 -1.09746334 5.1014256 -4.125 7.25 C-5.21167969 8.03117187 -5.21167969 8.03117187 -6.3203125 8.828125 C-6.87460937 9.21484375 -7.42890625 9.6015625 -8 10 C-6.27200079 6.23055056 -4.01169351 3.85724769 -1 1 C-0.67 0.67 -0.34 0.34 0 0 Z " fill="#7A7A7A" transform="translate(585,88)"/>
<path d="M0 0 C2.03819846 2.03819846 2.67841059 3.29417798 3.6875 5.9375 C3.95949219 6.62714844 4.23148438 7.31679687 4.51171875 8.02734375 C5 10 5 10 4 13 C4 12.34 4 11.68 4 11 C3.01 10.67 2.02 10.34 1 10 C-0.1577506 6.52674819 -0.06866652 3.63932552 0 0 Z " fill="#D68984" transform="translate(167,77)"/>
<path d="M0 0 C3.49844386 0.63389235 5.84086876 2.05177694 8.75 4.0625 C9.94882813 4.88427734 9.94882813 4.88427734 11.171875 5.72265625 C12.07679688 6.35494141 12.07679688 6.35494141 13 7 C12.34 7.66 11.68 8.32 11 9 C11 8.34 11 7.68 11 7 C9.68 6.67 8.36 6.34 7 6 C7 5.34 7 4.68 7 4 C5.35 4 3.7 4 2 4 C2 3.01 2 2.02 2 1 C1.34 0.67 0.68 0.34 0 0 Z " fill="#EA83A5" transform="translate(129,39)"/>
<path d="M0 0 C1.98 0 3.96 0 6 0 C5.34 1.65 4.68 3.3 4 5 C2.02 5 0.04 5 -2 5 C-2.33 4.34 -2.66 3.68 -3 3 C-2.34 2.67 -1.68 2.34 -1 2 C-0.67 1.34 -0.34 0.68 0 0 Z " fill="#ED185C" transform="translate(115,40)"/>
<path d="M0 0 C1.08203125 1.79296875 1.08203125 1.79296875 2 4 C1.31628948 5.72555512 0.62028114 7.44991201 -0.1953125 9.1171875 C-1.42275152 11.98915646 -1.68521304 14.91508777 -2 18 C-2.33 18 -2.66 18 -3 18 C-3.36517527 11.42684522 -2.13619737 6.20514474 0 0 Z " fill="#DBA695" transform="translate(16,84)"/>
<path d="M0 0 C0.33 0 0.66 0 1 0 C1 2.64 1 5.28 1 8 C1.66 8 2.32 8 3 8 C3.33 11.3 3.66 14.6 4 18 C3.34 17.67 2.68 17.34 2 17 C2 15.02 2 13.04 2 11 C1.34 11 0.68 11 0 11 C0 7.37 0 3.74 0 0 Z " fill="#B18163" transform="translate(23,112)"/>
<path d="M0 0 C2.64 0 5.28 0 8 0 C8 0.66 8 1.32 8 2 C6.25215171 2.36463732 4.50159498 2.7163078 2.75 3.0625 C1.28820312 3.35833984 1.28820312 3.35833984 -0.203125 3.66015625 C-2.868119 3.98397535 -4.48871723 3.85503199 -7 3 C-3.535 2.505 -3.535 2.505 0 2 C0 1.34 0 0.68 0 0 Z " fill="#D82861" transform="translate(80,41)"/>
<path d="M0 0 C4.87664009 -0.34833144 7.77050005 0.58314288 12 3 C12 3.33 12 3.66 12 4 C3.42857143 3 3.42857143 3 0 2 C0 1.34 0 0.68 0 0 Z " fill="#E86E9C" transform="translate(117,35)"/>
<path d="M0 0 C-3.20588235 6.6407563 -3.20588235 6.6407563 -6.625 8.1875 C-7.40875 8.455625 -8.1925 8.72375 -9 9 C-7.45665977 5.21180126 -4.44676575 0 0 0 Z " fill="#646363" transform="translate(389,182)"/>
<path d="M0 0 C0.99 0.33 1.98 0.66 3 1 C2.34 3.97 1.68 6.94 1 10 C0.34 10 -0.32 10 -1 10 C-1.02689216 8.52093108 -1.04634621 7.04172517 -1.0625 5.5625 C-1.07410156 4.73878906 -1.08570313 3.91507813 -1.09765625 3.06640625 C-1 1 -1 1 0 0 Z " fill="#3C1802" transform="translate(35,157)"/>
<path d="M0 0 C-0.84884766 0.16435547 -0.84884766 0.16435547 -1.71484375 0.33203125 C-2.81505859 0.56986328 -2.81505859 0.56986328 -3.9375 0.8125 C-4.66839844 0.96332031 -5.39929688 1.11414063 -6.15234375 1.26953125 C-7.06693359 1.63111328 -7.06693359 1.63111328 -8 2 C-8.33 2.99 -8.66 3.98 -9 5 C-10.98 5 -12.96 5 -15 5 C-12.86699672 2.63442627 -11.04050601 1.37032472 -8.0625 0.25 C-7.39347656 -0.01296875 -6.72445312 -0.2759375 -6.03515625 -0.546875 C-3.68352509 -1.07046274 -2.26382477 -0.74954377 0 0 Z " fill="#E6A6A3" transform="translate(88,76)"/>
<path d="M0 0 C3.11954738 0.33724836 4.6209965 0.6209965 6.875 2.875 C7.24625 3.57625 7.6175 4.2775 8 5 C7.67 5.99 7.34 6.98 7 8 C5.83035398 6.8572081 4.66435444 5.71068285 3.5 4.5625 C2.8503125 3.92441406 2.200625 3.28632812 1.53125 2.62890625 C0 1 0 1 0 0 Z " fill="#DC647A" transform="translate(138,59)"/>
<path d="M0 0 C0.33 0.66 0.66 1.32 1 2 C1.99 2.33 2.98 2.66 4 3 C-1.2734375 6.22265625 -1.2734375 6.22265625 -3 7 C-3.66 6.67 -4.32 6.34 -5 6 C-4.67 4.68 -4.34 3.36 -4 2 C-3.01 2 -2.02 2 -1 2 C-0.67 1.34 -0.34 0.68 0 0 Z " fill="#59524E" transform="translate(133,179)"/>
<path d="M0 0 C0 1.32 0 2.64 0 4 C-6.625 5 -6.625 5 -10 5 C-6.82795656 1.48809477 -4.74687042 0 0 0 Z " fill="#CD6C60" transform="translate(77,80)"/>
<path d="M0 0 C2.31 0 4.62 0 7 0 C7 0.99 7 1.98 7 3 C4.69 2.67 2.38 2.34 0 2 C0 2.66 0 3.32 0 4 C-0.66 4 -1.32 4 -2 4 C-1.34 2.68 -0.68 1.36 0 0 Z " fill="#CF2F3C" transform="translate(125,69)"/>
<path d="M0 0 C3.35433109 0.94933899 6.69246505 1.89748835 10 3 C10 3.66 10 4.32 10 5 C3.49955237 4.38675022 3.49955237 4.38675022 1.0625 2.5 C0 1 0 1 0 0 Z " fill="#E05D84" transform="translate(118,46)"/>
<path d="M0 0 C-1.32 1.32 -2.64 2.64 -4 4 C-4.99 3.67 -5.98 3.34 -7 3 C-7 2.01 -7 1.02 -7 0 C-3.86650268 -1.04449911 -3.01031744 -0.93423645 0 0 Z " fill="#453932" transform="translate(142,177)"/>
<path d="M0 0 C2 3 2 3 1.625 5.6875 C1.41875 6.450625 1.2125 7.21375 1 8 C0.01 8.33 -0.98 8.66 -2 9 C-1.125 1.125 -1.125 1.125 0 0 Z " fill="#5E2705" transform="translate(158,140)"/>
<path d="M0 0 C0.66 1.32 1.32 2.64 2 4 C0.02 4.99 -1.96 5.98 -4 7 C-4.33 5.68 -4.66 4.36 -5 3 C-3.35 2.67 -1.7 2.34 0 2 C0 1.34 0 0.68 0 0 Z " fill="#762D02" transform="translate(73,131)"/>
<path d="M0 0 C0 3.99904969 -1.72586967 5.80200422 -4 9 C-4.33 8.34 -4.66 7.68 -5 7 C-5.66 6.67 -6.32 6.34 -7 6 C-6.01 5.67 -5.02 5.34 -4 5 C-3.30062468 3.68352881 -2.63270867 2.34977849 -2 1 C-1.34 0.67 -0.68 0.34 0 0 Z " fill="#846959" transform="translate(164,151)"/>
<path d="M0 0 C3.24208567 0.35049575 4.61527704 0.56221181 6.8125 3.0625 C7.204375 3.701875 7.59625 4.34125 8 5 C5.36 4.67 2.72 4.34 0 4 C0 2.68 0 1.36 0 0 Z " fill="#664630" transform="translate(36,155)"/>
<path d="M0 0 C1.65 0.33 3.3 0.66 5 1 C4.34 2.65 3.68 4.3 3 6 C2.34 5.67 1.68 5.34 1 5 C1 4.34 1 3.68 1 3 C0.34 3 -0.32 3 -1 3 C-0.67 2.01 -0.34 1.02 0 0 Z " fill="#4C2205" transform="translate(152,150)"/>
<path d="M0 0 C1.078125 1.83984375 1.078125 1.83984375 2 4 C0.75 6.5625 0.75 6.5625 -1 9 C-1.66 9.99 -2.32 10.98 -3 12 C-4.21386936 8.35839192 -3.6674695 7.66834531 -2.0625 4.3125 C-1.49208984 3.10013672 -1.49208984 3.10013672 -0.91015625 1.86328125 C-0.60980469 1.24839844 -0.30945313 0.63351563 0 0 Z " fill="#906A53" transform="translate(158,135)"/>
<path d="M0 0 C0.66 0.66 1.32 1.32 2 2 C2.99 1.67 3.98 1.34 5 1 C5 1.66 5 2.32 5 3 C4.34 3 3.68 3 3 3 C3.66 4.65 4.32 6.3 5 8 C1.63279613 6.60667426 0.0140476 5.0210714 -2 2 C-1.34 2 -0.68 2 0 2 C0 1.34 0 0.68 0 0 Z " fill="#8F6346" transform="translate(68,135)"/>
<path d="M0 0 C3.0916909 2.52956528 3.90931332 5.22454612 5 9 C3.68 8.67 2.36 8.34 1 8 C0.67 5.36 0.34 2.72 0 0 Z " fill="#CA8770" transform="translate(123,89)"/>
<path d="M0 0 C2.97 0 5.94 0 9 0 C6.31158141 2.25245881 4.35358125 3.88213958 1 5 C0.67 3.35 0.34 1.7 0 0 Z " fill="#CD8575" transform="translate(75,89)"/>
<path d="M0 0 C0.66 0.33 1.32 0.66 2 1 C0.515 3.475 0.515 3.475 -1 6 C-2.65 5.67 -4.3 5.34 -6 5 C-2.25 1.125 -2.25 1.125 0 0 Z " fill="#EA7A9D" transform="translate(52,41)"/>
<path d="M0 0 C0.66 0.99 1.32 1.98 2 3 C2.99387334 4.33790641 3.9926892 5.67218122 5 7 C2 7 2 7 -0.6875 4.5 C-1.450625 3.675 -2.21375 2.85 -3 2 C-2.01 2 -1.02 2 0 2 C0 1.34 0 0.68 0 0 Z " fill="#6F635B" transform="translate(44,172)"/>
<path d="M0 0 C1.65 0 3.3 0 5 0 C5.66 1.32 6.32 2.64 7 4 C6.34 4.66 5.68 5.32 5 6 C3.35 4.02 1.7 2.04 0 0 Z " fill="#664E40" transform="translate(28,161)"/>
<path d="M0 0 C1.65 0 3.3 0 5 0 C3.63016497 3.16115776 3.0109362 3.9927092 0 6 C-1.125 2.25 -1.125 2.25 0 0 Z " fill="#675043" transform="translate(154,160)"/>
<path d="M0 0 C0.33 0 0.66 0 1 0 C1.125 6.625 1.125 6.625 0 10 C-2.0625 10.6875 -2.0625 10.6875 -4 11 C-3.71125 10.29875 -3.4225 9.5975 -3.125 8.875 C-1.97866412 5.94547497 -0.97374346 2.99078347 0 0 Z " fill="#B68B6F" transform="translate(117,117)"/>
<path d="M0 0 C1.65 1.65 3.3 3.3 5 5 C4.01 5.33 3.02 5.66 2 6 C0.68 4.68 -0.64 3.36 -2 2 C-1.34 2 -0.68 2 0 2 C0 1.34 0 0.68 0 0 Z " fill="#6F594B" transform="translate(44,160)"/>
<path d="M0 0 C0.99 0.33 1.98 0.66 3 1 C4.15941038 4.47823115 3.70820884 6.45895578 3 10 C1.11608215 6.73454239 0.50712033 3.71888239 0 0 Z " fill="#A77A5D" transform="translate(14,130)"/>
<path d="M0 0 C1.65 0.33 3.3 0.66 5 1 C3.35 2.65 1.7 4.3 0 6 C-1.125 2.25 -1.125 2.25 0 0 Z " fill="#DF5A73" transform="translate(43,59)"/>
<path d="M0 0 C0.66 0.33 1.32 0.66 2 1 C-2.625 6.875 -2.625 6.875 -6 8 C-4.55746343 4.63408134 -2.66735273 2.48952921 0 0 Z " fill="#D42954" transform="translate(41,50)"/>
<path d="M0 0 C2.15377564 2.62198774 3.40072174 4.64404172 4 8 C2.0625 7.3125 2.0625 7.3125 0 6 C-0.8125 3.4375 -0.8125 3.4375 -1 1 C-0.67 0.67 -0.34 0.34 0 0 Z " fill="#937865" transform="translate(31,141)"/>
<path d="M0 0 C0 3.57575896 -1.08840607 5.05295935 -3 8 C-3.66 7.67 -4.32 7.34 -5 7 C-5 6.01 -5 5.02 -5 4 C-2.5 1.8125 -2.5 1.8125 0 0 Z " fill="#A07357" transform="translate(112,128)"/>
<path d="M0 0 C0.66 0 1.32 0 2 0 C0.70700306 2.88437779 -0.65941363 4.87219421 -3 7 C-3.66 6.67 -4.32 6.34 -5 6 C-3.38405168 3.95880212 -1.7143618 1.95927063 0 0 Z " fill="#6F6F6F" transform="translate(626,84)"/>
<path d="M0 0 C-1.0975223 2.99324263 -1.67682892 3.84610901 -4.625 5.25 C-5.40875 5.4975 -6.1925 5.745 -7 6 C-6.67 5.01 -6.34 4.02 -6 3 C-5.34 3 -4.68 3 -4 3 C-4 2.34 -4 1.68 -4 1 C-2 0 -2 0 0 0 Z " fill="#997860" transform="translate(118,139)"/>
<path d="M0 0 C0 3 0 3 -2 5.1875 C-2.66 5.785625 -3.32 6.38375 -4 7 C-4 5.02 -4 3.04 -4 1 C-2.68 0.67 -1.36 0.34 0 0 Z " fill="#E38894" transform="translate(41,66)"/>
<path d="" fill="#FFFFFF" transform="translate(0,0)"/>
</svg>